<svg width="228" height="56" viewBox="0 0 228 56" fill="none" xmlns="http://www.w3.org/2000/svg">
<path d="M227.01 19.0674H219.128L219.86 38.8851H226.278L227.01 19.0674ZM223.069 48.3435C225.138 48.3435 226.982 46.5982 227.01 44.4025C226.982 42.2631 225.138 40.5178 223.069 40.5178C220.888 40.5178 219.1 42.2631 219.128 44.4025C219.1 46.5982 220.888 48.3435 223.069 48.3435Z" fill="#02C076"/>
<path d="M84.2833 28.075H91.7712C91.7431 22.4168 87.3798 18.6729 80.3986 18.6729C73.544 18.6729 68.7022 22.3605 68.7444 27.8498C68.7303 32.3538 71.855 34.8592 76.9642 35.957L79.8356 36.5763C83.0447 37.2801 84.1425 38.0824 84.1707 39.3913C84.1425 40.8129 82.8476 41.8122 80.3423 41.8122C77.3443 41.8122 75.5708 40.4047 75.4441 37.7586H68.8382C68.8664 44.9932 72.9388 48.2305 80.4549 48.2305C87.7598 48.2305 92.1372 45.0777 92.1653 39.3913C92.1372 34.9999 89.5192 31.9175 83.1573 30.5522L80.7927 30.0455C78.0621 29.4684 76.8376 28.6661 76.9079 27.2868C76.922 26.02 77.9777 25.0911 80.3986 25.0911C82.9321 25.0911 84.1284 26.203 84.2833 28.075Z" fill="#1B1A1C"/>
<path d="M97.9272 47.8927H106.316L109.356 36.2948H109.581L112.622 47.8927H121.01L126.415 26.2734H118.646L116.281 39.335H116.112L113.241 26.2734H105.697L102.938 39.4476H102.769L100.292 26.2734H92.5223L97.9272 47.8927Z" fill="#1B1A1C"/>
<path d="M132.822 48.2305C135.637 48.2305 137.762 47.2734 139.071 44.8525H139.24V47.8927H146.503V33.0857C146.503 29.0884 142.717 25.9919 136.538 25.9919C130.077 25.9919 126.896 29.3699 126.629 33.3109H133.779C133.962 31.9738 134.947 31.3404 136.425 31.3404C137.776 31.3404 138.734 31.9597 138.734 33.0857V33.142C138.734 34.3947 137.354 34.7888 133.723 35.0562C129.261 35.3799 125.785 37.1816 125.785 41.9248C125.785 46.2318 128.684 48.2305 132.822 48.2305ZM135.356 43.3324C134.032 43.3324 133.104 42.6849 133.104 41.4744C133.104 40.3625 133.892 39.5039 135.693 39.2224C136.932 39.0254 137.974 38.772 138.79 38.4342V40.2358C138.79 42.2063 137.115 43.3324 135.356 43.3324Z" fill="#1B1A1C"/>
<path d="M148.234 55.9999H156.003V44.3458H156.116C157.016 46.5415 159.099 48.1742 162.14 48.1742C166.756 48.1742 170.641 44.571 170.641 37.083C170.641 29.2573 166.475 25.9919 162.196 25.9919C158.987 25.9919 156.96 27.8498 156.116 30.0455H155.947V26.2734H148.234V55.9999ZM155.834 37.083C155.834 33.8739 157.129 31.9597 159.268 31.9597C161.408 31.9597 162.646 33.8739 162.646 37.083C162.646 40.2921 161.408 42.2063 159.268 42.2063C157.129 42.2063 155.834 40.2358 155.834 37.083Z" fill="#1B1A1C"/>
<path d="M185.933 38.4342C185.947 40.5736 184.708 41.8685 182.78 41.8685C180.824 41.8685 179.698 40.5736 179.684 38.4342V26.2734H171.914V40.0669C171.928 44.7962 174.912 48.1742 179.458 48.1742C182.682 48.1742 185.159 46.5415 186.102 43.7828H186.327V47.8927H193.702V26.2734H185.933V38.4342Z" fill="#1B1A1C"/>
<path d="M195.897 47.8927H214.87V41.9811H205.919V41.8685L214.533 31.0026V26.2734H196.235V32.1849H205.356V32.2975L195.897 43.6139V47.8927Z" fill="#1B1A1C"/>
<path fill-rule="evenodd" clip-rule="evenodd" d="M37.1507 0.362323C38.7815 -0.626074 40.8707 0.521586 40.9113 2.42811L41.1572 13.9837L53.1293 16.0476C55.0085 16.3715 55.8323 18.6083 54.6122 20.0738L46.6455 29.6421L52.6955 34.5031C54.1821 35.6975 53.8182 38.0533 52.0405 38.7435L41.1079 42.9881L42.448 49.7445C42.819 51.6151 41.026 53.1858 39.2206 52.5718L31.422 49.9199C22.5275 54.2394 11.8712 51.9998 5.44571 44.6711C14.9628 47.4187 22.5907 44.5466 26.2114 41.578C27.0931 40.8551 27.2218 39.5544 26.4989 38.6727C25.776 37.7911 24.4753 37.6624 23.5936 38.3853C20.5882 40.8495 12.3794 44.0887 1.75321 38.8054C-2.4648 28.9446 1.10711 17.2296 10.5435 11.5104C14.6957 8.99385 19.3517 8.02106 23.8427 8.428L37.1507 0.362323ZM19.4563 25.4197C17.5063 26.6016 14.9674 25.9789 13.7856 24.0289C12.6037 22.0789 13.2264 19.54 15.1765 18.3581C17.1265 17.1763 19.6654 17.799 20.8472 19.749C22.0291 21.699 21.4064 24.2379 19.4563 25.4197Z" fill="#02C076"/>
</svg>
