<svg width="272" height="173" viewBox="0 0 272 173" fill="none" xmlns="http://www.w3.org/2000/svg">
<g filter="url(#filter0_b_236_16793)">
<rect y="16.4287" width="272" height="156" rx="12" fill="#217EFF"/>
<path d="M64.3828 43.5771H67.1172C67.0807 44.3688 66.8672 45.0667 66.4766 45.6709C66.0859 46.2751 65.5443 46.7464 64.8516 47.085C64.1641 47.4183 63.3516 47.585 62.4141 47.585C61.6536 47.585 60.974 47.4574 60.375 47.2021C59.7812 46.9469 59.276 46.5798 58.8594 46.1006C58.4479 45.6214 58.1328 45.0407 57.9141 44.3584C57.7005 43.6761 57.5938 42.9079 57.5938 42.0537V41.4365C57.5938 40.5824 57.7057 39.8141 57.9297 39.1318C58.1589 38.4443 58.4818 37.861 58.8984 37.3818C59.3203 36.8975 59.8255 36.5277 60.4141 36.2725C61.0026 36.0173 61.6562 35.8896 62.375 35.8896C63.3646 35.8896 64.2005 36.0667 64.8828 36.4209C65.5651 36.7751 66.0938 37.262 66.4688 37.8818C66.8438 38.4964 67.0651 39.1969 67.1328 39.9834H64.3984C64.388 39.5563 64.3151 39.1995 64.1797 38.9131C64.0443 38.6214 63.8307 38.4027 63.5391 38.2568C63.2474 38.111 62.8594 38.0381 62.375 38.0381C62.0365 38.0381 61.7422 38.1006 61.4922 38.2256C61.2422 38.3506 61.0339 38.5485 60.8672 38.8193C60.7005 39.0902 60.5755 39.4417 60.4922 39.874C60.4141 40.3011 60.375 40.8167 60.375 41.4209V42.0537C60.375 42.6579 60.4115 43.1735 60.4844 43.6006C60.5573 44.0277 60.6745 44.3766 60.8359 44.6475C60.9974 44.9183 61.2057 45.1188 61.4609 45.249C61.7214 45.374 62.0391 45.4365 62.4141 45.4365C62.8307 45.4365 63.1823 45.3714 63.4688 45.2412C63.7552 45.1058 63.9766 44.9027 64.1328 44.6318C64.2891 44.3558 64.3724 44.0042 64.3828 43.5771ZM72.6797 45.3037V41.8193C72.6797 41.5798 72.6458 41.374 72.5781 41.2021C72.5104 41.0303 72.4036 40.8975 72.2578 40.8037C72.112 40.7048 71.9167 40.6553 71.6719 40.6553C71.474 40.6553 71.3047 40.6891 71.1641 40.7568C71.0234 40.8245 70.9167 40.9261 70.8438 41.0615C70.7708 41.1969 70.7344 41.3688 70.7344 41.5771H68.1016C68.1016 41.1865 68.1875 40.8245 68.3594 40.4912C68.5365 40.1527 68.7865 39.8584 69.1094 39.6084C69.4375 39.3584 69.8281 39.1657 70.2812 39.0303C70.7396 38.8896 71.25 38.8193 71.8125 38.8193C72.4844 38.8193 73.0833 38.9313 73.6094 39.1553C74.1406 39.3792 74.5599 39.7152 74.8672 40.1631C75.1745 40.6058 75.3281 41.1631 75.3281 41.835V45.2959C75.3281 45.848 75.3594 46.2673 75.4219 46.5537C75.4844 46.835 75.5729 47.0824 75.6875 47.2959V47.4287H73.0469C72.9219 47.1683 72.8281 46.8506 72.7656 46.4756C72.7083 46.0954 72.6797 45.7048 72.6797 45.3037ZM73 42.2646L73.0156 43.6709H71.8516C71.6068 43.6709 71.3984 43.7048 71.2266 43.7725C71.0599 43.8402 70.9245 43.9339 70.8203 44.0537C70.7214 44.1683 70.6484 44.2985 70.6016 44.4443C70.5599 44.5902 70.5391 44.7438 70.5391 44.9053C70.5391 45.0615 70.5755 45.2021 70.6484 45.3271C70.7266 45.4469 70.8307 45.5407 70.9609 45.6084C71.0911 45.6761 71.237 45.71 71.3984 45.71C71.6901 45.71 71.9375 45.6553 72.1406 45.5459C72.349 45.4313 72.5078 45.2933 72.6172 45.1318C72.7266 44.9704 72.7812 44.8193 72.7812 44.6787L73.3594 45.7568C73.2552 45.9652 73.1354 46.1761 73 46.3896C72.8698 46.6032 72.7057 46.8011 72.5078 46.9834C72.3151 47.1605 72.0781 47.3063 71.7969 47.4209C71.5156 47.5303 71.1745 47.585 70.7734 47.585C70.2526 47.585 69.7734 47.4782 69.3359 47.2646C68.9036 47.0511 68.5573 46.7542 68.2969 46.374C68.0365 45.9886 67.9062 45.5459 67.9062 45.0459C67.9062 44.6084 67.9844 44.2178 68.1406 43.874C68.3021 43.5303 68.5443 43.2386 68.8672 42.999C69.1901 42.7594 69.6016 42.5771 70.1016 42.4521C70.6016 42.3271 71.1901 42.2646 71.8672 42.2646H73ZM79.5703 35.4287V47.4287H76.9297V35.4287H79.5703ZM83.9766 35.4287V47.4287H81.3359V35.4287H83.9766ZM93.1562 45.5537C93.401 45.5537 93.6094 45.5094 93.7812 45.4209C93.9583 45.3271 94.0911 45.1969 94.1797 45.0303C94.2734 44.8584 94.3177 44.6527 94.3125 44.4131H96.7891C96.7943 45.0485 96.638 45.6058 96.3203 46.085C96.0078 46.5589 95.5807 46.9287 95.0391 47.1943C94.5026 47.4548 93.8958 47.585 93.2188 47.585C92.5573 47.585 91.9792 47.4782 91.4844 47.2646C90.9896 47.0459 90.5755 46.7438 90.2422 46.3584C89.9141 45.9678 89.6667 45.512 89.5 44.9912C89.3385 44.4704 89.2578 43.9053 89.2578 43.2959V43.1162C89.2578 42.5068 89.3385 41.9417 89.5 41.4209C89.6667 40.8949 89.9141 40.4391 90.2422 40.0537C90.5755 39.6631 90.987 39.361 91.4766 39.1475C91.9714 38.9287 92.5469 38.8193 93.2031 38.8193C93.9062 38.8193 94.526 38.9521 95.0625 39.2178C95.6042 39.4834 96.0286 39.8688 96.3359 40.374C96.6432 40.8792 96.7943 41.4912 96.7891 42.21H94.3125C94.3177 41.9548 94.2786 41.7256 94.1953 41.5225C94.112 41.3193 93.9818 41.1579 93.8047 41.0381C93.6328 40.9131 93.4115 40.8506 93.1406 40.8506C92.8698 40.8506 92.651 40.9105 92.4844 41.0303C92.3177 41.1501 92.1901 41.3167 92.1016 41.5303C92.0182 41.7386 91.9609 41.9782 91.9297 42.249C91.9036 42.5199 91.8906 42.8089 91.8906 43.1162V43.2959C91.8906 43.6084 91.9036 43.9027 91.9297 44.1787C91.9609 44.4495 92.0208 44.6891 92.1094 44.8975C92.1979 45.1006 92.3255 45.262 92.4922 45.3818C92.6589 45.4964 92.8802 45.5537 93.1562 45.5537ZM100.492 35.4287V47.4287H97.8594V35.4287H100.492ZM100.18 42.9131L99.5625 42.9287C99.5625 42.335 99.6354 41.7881 99.7812 41.2881C99.9271 40.7881 100.135 40.3532 100.406 39.9834C100.677 39.6136 101.003 39.3271 101.383 39.124C101.763 38.9209 102.185 38.8193 102.648 38.8193C103.065 38.8193 103.445 38.8792 103.789 38.999C104.138 39.1188 104.438 39.3115 104.688 39.5771C104.943 39.8428 105.138 40.1891 105.273 40.6162C105.414 41.0433 105.484 41.5641 105.484 42.1787V47.4287H102.836V42.1631C102.836 41.8193 102.786 41.5537 102.688 41.3662C102.594 41.1735 102.458 41.0407 102.281 40.9678C102.104 40.8896 101.888 40.8506 101.633 40.8506C101.326 40.8506 101.076 40.9027 100.883 41.0068C100.69 41.111 100.542 41.2568 100.438 41.4443C100.339 41.6266 100.271 41.8428 100.234 42.0928C100.198 42.3428 100.18 42.6162 100.18 42.9131ZM111.336 45.3037V41.8193C111.336 41.5798 111.302 41.374 111.234 41.2021C111.167 41.0303 111.06 40.8975 110.914 40.8037C110.768 40.7048 110.573 40.6553 110.328 40.6553C110.13 40.6553 109.961 40.6891 109.82 40.7568C109.68 40.8245 109.573 40.9261 109.5 41.0615C109.427 41.1969 109.391 41.3688 109.391 41.5771H106.758C106.758 41.1865 106.844 40.8245 107.016 40.4912C107.193 40.1527 107.443 39.8584 107.766 39.6084C108.094 39.3584 108.484 39.1657 108.938 39.0303C109.396 38.8896 109.906 38.8193 110.469 38.8193C111.141 38.8193 111.74 38.9313 112.266 39.1553C112.797 39.3792 113.216 39.7152 113.523 40.1631C113.831 40.6058 113.984 41.1631 113.984 41.835V45.2959C113.984 45.848 114.016 46.2673 114.078 46.5537C114.141 46.835 114.229 47.0824 114.344 47.2959V47.4287H111.703C111.578 47.1683 111.484 46.8506 111.422 46.4756C111.365 46.0954 111.336 45.7048 111.336 45.3037ZM111.656 42.2646L111.672 43.6709H110.508C110.263 43.6709 110.055 43.7048 109.883 43.7725C109.716 43.8402 109.581 43.9339 109.477 44.0537C109.378 44.1683 109.305 44.2985 109.258 44.4443C109.216 44.5902 109.195 44.7438 109.195 44.9053C109.195 45.0615 109.232 45.2021 109.305 45.3271C109.383 45.4469 109.487 45.5407 109.617 45.6084C109.747 45.6761 109.893 45.71 110.055 45.71C110.346 45.71 110.594 45.6553 110.797 45.5459C111.005 45.4313 111.164 45.2933 111.273 45.1318C111.383 44.9704 111.438 44.8193 111.438 44.6787L112.016 45.7568C111.911 45.9652 111.792 46.1761 111.656 46.3896C111.526 46.6032 111.362 46.8011 111.164 46.9834C110.971 47.1605 110.734 47.3063 110.453 47.4209C110.172 47.5303 109.831 47.585 109.43 47.585C108.909 47.585 108.43 47.4782 107.992 47.2646C107.56 47.0511 107.214 46.7542 106.953 46.374C106.693 45.9886 106.562 45.5459 106.562 45.0459C106.562 44.6084 106.641 44.2178 106.797 43.874C106.958 43.5303 107.201 43.2386 107.523 42.999C107.846 42.7594 108.258 42.5771 108.758 42.4521C109.258 42.3271 109.846 42.2646 110.523 42.2646H111.656ZM119.898 38.9756V40.8037H114.805V38.9756H119.898ZM115.875 36.874H118.508V44.6709C118.508 44.8949 118.534 45.0693 118.586 45.1943C118.638 45.3141 118.727 45.4001 118.852 45.4521C118.982 45.499 119.154 45.5225 119.367 45.5225C119.518 45.5225 119.643 45.5199 119.742 45.5146C119.841 45.5042 119.935 45.4912 120.023 45.4756V47.3584C119.799 47.4313 119.565 47.486 119.32 47.5225C119.076 47.5641 118.815 47.585 118.539 47.585C117.977 47.585 117.495 47.4964 117.094 47.3193C116.698 47.1423 116.396 46.8636 116.188 46.4834C115.979 46.1032 115.875 45.6084 115.875 44.999V36.874ZM127.5 44.9131L129.062 38.9756H130.711L130.125 41.9521L128.578 47.4287H127.258L127.5 44.9131ZM126.883 38.9756L127.852 44.8662L127.961 47.4287H126.359L124.359 38.9756H126.883ZM132.102 44.7412L133.078 38.9756H135.602L133.617 47.4287H132.016L132.102 44.7412ZM130.898 38.9756L132.477 44.8975L132.719 47.4287H131.383L129.867 41.9678L129.305 38.9756H130.898ZM139.336 38.9756V47.4287H136.695V38.9756H139.336ZM136.539 36.7959C136.539 36.4209 136.674 36.1136 136.945 35.874C137.216 35.6344 137.568 35.5146 138 35.5146C138.432 35.5146 138.784 35.6344 139.055 35.874C139.326 36.1136 139.461 36.4209 139.461 36.7959C139.461 37.1709 139.326 37.4782 139.055 37.7178C138.784 37.9574 138.432 38.0771 138 38.0771C137.568 38.0771 137.216 37.9574 136.945 37.7178C136.674 37.4782 136.539 37.1709 136.539 36.7959ZM145.414 38.9756V40.8037H140.32V38.9756H145.414ZM141.391 36.874H144.023V44.6709C144.023 44.8949 144.049 45.0693 144.102 45.1943C144.154 45.3141 144.242 45.4001 144.367 45.4521C144.497 45.499 144.669 45.5225 144.883 45.5225C145.034 45.5225 145.159 45.5199 145.258 45.5146C145.357 45.5042 145.451 45.4912 145.539 45.4756V47.3584C145.315 47.4313 145.081 47.486 144.836 47.5225C144.591 47.5641 144.331 47.585 144.055 47.585C143.492 47.585 143.01 47.4964 142.609 47.3193C142.214 47.1423 141.911 46.8636 141.703 46.4834C141.495 46.1032 141.391 45.6084 141.391 44.999V36.874ZM149.039 35.4287V47.4287H146.406V35.4287H149.039ZM148.727 42.9131L148.109 42.9287C148.109 42.335 148.182 41.7881 148.328 41.2881C148.474 40.7881 148.682 40.3532 148.953 39.9834C149.224 39.6136 149.549 39.3271 149.93 39.124C150.31 38.9209 150.732 38.8193 151.195 38.8193C151.612 38.8193 151.992 38.8792 152.336 38.999C152.685 39.1188 152.984 39.3115 153.234 39.5771C153.49 39.8428 153.685 40.1891 153.82 40.6162C153.961 41.0433 154.031 41.5641 154.031 42.1787V47.4287H151.383V42.1631C151.383 41.8193 151.333 41.5537 151.234 41.3662C151.141 41.1735 151.005 41.0407 150.828 40.9678C150.651 40.8896 150.435 40.8506 150.18 40.8506C149.872 40.8506 149.622 40.9027 149.43 41.0068C149.237 41.111 149.089 41.2568 148.984 41.4443C148.885 41.6266 148.818 41.8428 148.781 42.0928C148.745 42.3428 148.727 42.6162 148.727 42.9131ZM163.906 45.0537C163.906 44.9079 163.857 44.7829 163.758 44.6787C163.664 44.5693 163.497 44.4704 163.258 44.3818C163.018 44.2881 162.682 44.1943 162.25 44.1006C161.839 44.012 161.451 43.8949 161.086 43.749C160.727 43.6032 160.411 43.4261 160.141 43.2178C159.87 43.0094 159.656 42.762 159.5 42.4756C159.349 42.1891 159.273 41.861 159.273 41.4912C159.273 41.1318 159.349 40.7933 159.5 40.4756C159.656 40.1527 159.883 39.8688 160.18 39.624C160.482 39.374 160.849 39.1787 161.281 39.0381C161.714 38.8923 162.206 38.8193 162.758 38.8193C163.518 38.8193 164.174 38.9365 164.727 39.1709C165.279 39.4001 165.703 39.723 166 40.1396C166.302 40.5511 166.453 41.0277 166.453 41.5693H163.82C163.82 41.3558 163.784 41.1735 163.711 41.0225C163.643 40.8714 163.531 40.7568 163.375 40.6787C163.219 40.5954 163.01 40.5537 162.75 40.5537C162.568 40.5537 162.401 40.5876 162.25 40.6553C162.104 40.723 161.987 40.8167 161.898 40.9365C161.81 41.0563 161.766 41.1969 161.766 41.3584C161.766 41.473 161.792 41.5771 161.844 41.6709C161.901 41.7594 161.987 41.8428 162.102 41.9209C162.216 41.9938 162.362 42.0615 162.539 42.124C162.716 42.1813 162.93 42.2334 163.18 42.2803C163.747 42.3844 164.279 42.5329 164.773 42.7256C165.268 42.9183 165.669 43.1917 165.977 43.5459C166.289 43.9001 166.445 44.3766 166.445 44.9756C166.445 45.3506 166.359 45.6969 166.188 46.0146C166.016 46.3271 165.768 46.6032 165.445 46.8428C165.122 47.0771 164.734 47.2594 164.281 47.3896C163.828 47.5199 163.318 47.585 162.75 47.585C161.943 47.585 161.26 47.4417 160.703 47.1553C160.146 46.8636 159.724 46.499 159.438 46.0615C159.156 45.6188 159.016 45.1709 159.016 44.7178H161.469C161.479 44.9782 161.542 45.1917 161.656 45.3584C161.776 45.5251 161.935 45.6475 162.133 45.7256C162.331 45.8037 162.56 45.8428 162.82 45.8428C163.06 45.8428 163.258 45.8089 163.414 45.7412C163.576 45.6735 163.698 45.5824 163.781 45.4678C163.865 45.348 163.906 45.21 163.906 45.0537ZM172.617 45.374V38.9756H175.258V47.4287H172.789L172.617 45.374ZM172.867 43.6553L173.555 43.6396C173.555 44.2074 173.487 44.7334 173.352 45.2178C173.216 45.6969 173.016 46.1136 172.75 46.4678C172.49 46.8219 172.167 47.098 171.781 47.2959C171.401 47.4886 170.961 47.585 170.461 47.585C170.044 47.585 169.661 47.5277 169.312 47.4131C168.969 47.2933 168.672 47.1084 168.422 46.8584C168.172 46.6032 167.977 46.2777 167.836 45.8818C167.701 45.4808 167.633 45.0016 167.633 44.4443V38.9756H170.266V44.46C170.266 44.6475 170.289 44.8089 170.336 44.9443C170.383 45.0798 170.451 45.1943 170.539 45.2881C170.628 45.3766 170.737 45.4443 170.867 45.4912C171.003 45.5329 171.156 45.5537 171.328 45.5537C171.724 45.5537 172.034 45.4704 172.258 45.3037C172.482 45.137 172.638 44.9105 172.727 44.624C172.82 44.3376 172.867 44.0146 172.867 43.6553ZM179.367 40.6006V50.6787H176.734V38.9756H179.188L179.367 40.6006ZM184.555 43.1006V43.2646C184.555 43.8792 184.484 44.4495 184.344 44.9756C184.203 45.5016 183.995 45.96 183.719 46.3506C183.443 46.7412 183.099 47.0459 182.688 47.2646C182.281 47.4782 181.81 47.585 181.273 47.585C180.768 47.585 180.333 47.473 179.969 47.249C179.604 47.0251 179.299 46.7152 179.055 46.3193C178.81 45.9235 178.612 45.4704 178.461 44.96C178.31 44.4495 178.19 43.9105 178.102 43.3428V43.1318C178.19 42.5225 178.31 41.9574 178.461 41.4365C178.612 40.9105 178.81 40.4521 179.055 40.0615C179.299 39.6709 179.602 39.3662 179.961 39.1475C180.326 38.9287 180.76 38.8193 181.266 38.8193C181.802 38.8193 182.273 38.9209 182.68 39.124C183.091 39.3271 183.435 39.6188 183.711 39.999C183.992 40.374 184.203 40.8245 184.344 41.3506C184.484 41.8766 184.555 42.46 184.555 43.1006ZM181.922 43.2646V43.1006C181.922 42.7725 181.898 42.473 181.852 42.2021C181.805 41.9261 181.729 41.6865 181.625 41.4834C181.526 41.2803 181.393 41.124 181.227 41.0146C181.06 40.9053 180.854 40.8506 180.609 40.8506C180.328 40.8506 180.091 40.8949 179.898 40.9834C179.711 41.0667 179.56 41.1969 179.445 41.374C179.336 41.5459 179.258 41.762 179.211 42.0225C179.169 42.2777 179.151 42.5771 179.156 42.9209V43.5615C179.146 43.9574 179.185 44.3063 179.273 44.6084C179.362 44.9053 179.516 45.137 179.734 45.3037C179.953 45.4704 180.25 45.5537 180.625 45.5537C180.875 45.5537 181.083 45.4964 181.25 45.3818C181.417 45.262 181.549 45.098 181.648 44.8896C181.747 44.6761 181.818 44.4313 181.859 44.1553C181.901 43.8792 181.922 43.5824 181.922 43.2646ZM188.383 40.6006V50.6787H185.75V38.9756H188.203L188.383 40.6006ZM193.57 43.1006V43.2646C193.57 43.8792 193.5 44.4495 193.359 44.9756C193.219 45.5016 193.01 45.96 192.734 46.3506C192.458 46.7412 192.115 47.0459 191.703 47.2646C191.297 47.4782 190.826 47.585 190.289 47.585C189.784 47.585 189.349 47.473 188.984 47.249C188.62 47.0251 188.315 46.7152 188.07 46.3193C187.826 45.9235 187.628 45.4704 187.477 44.96C187.326 44.4495 187.206 43.9105 187.117 43.3428V43.1318C187.206 42.5225 187.326 41.9574 187.477 41.4365C187.628 40.9105 187.826 40.4521 188.07 40.0615C188.315 39.6709 188.617 39.3662 188.977 39.1475C189.341 38.9287 189.776 38.8193 190.281 38.8193C190.818 38.8193 191.289 38.9209 191.695 39.124C192.107 39.3271 192.451 39.6188 192.727 39.999C193.008 40.374 193.219 40.8245 193.359 41.3506C193.5 41.8766 193.57 42.46 193.57 43.1006ZM190.938 43.2646V43.1006C190.938 42.7725 190.914 42.473 190.867 42.2021C190.82 41.9261 190.745 41.6865 190.641 41.4834C190.542 41.2803 190.409 41.124 190.242 41.0146C190.076 40.9053 189.87 40.8506 189.625 40.8506C189.344 40.8506 189.107 40.8949 188.914 40.9834C188.727 41.0667 188.576 41.1969 188.461 41.374C188.352 41.5459 188.273 41.762 188.227 42.0225C188.185 42.2777 188.167 42.5771 188.172 42.9209V43.5615C188.161 43.9574 188.201 44.3063 188.289 44.6084C188.378 44.9053 188.531 45.137 188.75 45.3037C188.969 45.4704 189.266 45.5537 189.641 45.5537C189.891 45.5537 190.099 45.4964 190.266 45.3818C190.432 45.262 190.565 45.098 190.664 44.8896C190.763 44.6761 190.833 44.4313 190.875 44.1553C190.917 43.8792 190.938 43.5824 190.938 43.2646ZM194.414 43.2881V43.124C194.414 42.5042 194.503 41.9339 194.68 41.4131C194.857 40.887 195.117 40.4313 195.461 40.0459C195.805 39.6605 196.229 39.361 196.734 39.1475C197.24 38.9287 197.823 38.8193 198.484 38.8193C199.151 38.8193 199.737 38.9287 200.242 39.1475C200.753 39.361 201.18 39.6605 201.523 40.0459C201.867 40.4313 202.128 40.887 202.305 41.4131C202.482 41.9339 202.57 42.5042 202.57 43.124V43.2881C202.57 43.9027 202.482 44.473 202.305 44.999C202.128 45.5199 201.867 45.9756 201.523 46.3662C201.18 46.7516 200.755 47.0511 200.25 47.2646C199.745 47.4782 199.161 47.585 198.5 47.585C197.839 47.585 197.253 47.4782 196.742 47.2646C196.232 47.0511 195.805 46.7516 195.461 46.3662C195.117 45.9756 194.857 45.5199 194.68 44.999C194.503 44.473 194.414 43.9027 194.414 43.2881ZM197.047 43.124V43.2881C197.047 43.6058 197.07 43.9027 197.117 44.1787C197.164 44.4548 197.242 44.6969 197.352 44.9053C197.461 45.1084 197.609 45.2673 197.797 45.3818C197.984 45.4964 198.219 45.5537 198.5 45.5537C198.776 45.5537 199.005 45.4964 199.188 45.3818C199.375 45.2673 199.523 45.1084 199.633 44.9053C199.742 44.6969 199.82 44.4548 199.867 44.1787C199.914 43.9027 199.938 43.6058 199.938 43.2881V43.124C199.938 42.8167 199.914 42.5277 199.867 42.2568C199.82 41.9808 199.742 41.7386 199.633 41.5303C199.523 41.3167 199.375 41.1501 199.188 41.0303C199 40.9105 198.766 40.8506 198.484 40.8506C198.208 40.8506 197.977 40.9105 197.789 41.0303C197.607 41.1501 197.461 41.3167 197.352 41.5303C197.242 41.7386 197.164 41.9808 197.117 42.2568C197.07 42.5277 197.047 42.8167 197.047 43.124ZM206.398 41.0693V47.4287H203.766V38.9756H206.227L206.398 41.0693ZM208.898 38.9131L208.852 41.3584C208.747 41.348 208.607 41.335 208.43 41.3193C208.253 41.3037 208.104 41.2959 207.984 41.2959C207.677 41.2959 207.411 41.3324 207.188 41.4053C206.969 41.473 206.786 41.5771 206.641 41.7178C206.5 41.8532 206.396 42.0251 206.328 42.2334C206.266 42.4417 206.237 42.6839 206.242 42.96L205.766 42.6475C205.766 42.0798 205.82 41.5641 205.93 41.1006C206.044 40.6318 206.206 40.2282 206.414 39.8896C206.622 39.5459 206.875 39.2829 207.172 39.1006C207.469 38.9131 207.802 38.8193 208.172 38.8193C208.302 38.8193 208.43 38.8271 208.555 38.8428C208.685 38.8584 208.799 38.8818 208.898 38.9131ZM214.648 38.9756V40.8037H209.555V38.9756H214.648ZM210.625 36.874H213.258V44.6709C213.258 44.8949 213.284 45.0693 213.336 45.1943C213.388 45.3141 213.477 45.4001 213.602 45.4521C213.732 45.499 213.904 45.5225 214.117 45.5225C214.268 45.5225 214.393 45.5199 214.492 45.5146C214.591 45.5042 214.685 45.4912 214.773 45.4756V47.3584C214.549 47.4313 214.315 47.486 214.07 47.5225C213.826 47.5641 213.565 47.585 213.289 47.585C212.727 47.585 212.245 47.4964 211.844 47.3193C211.448 47.1423 211.146 46.8636 210.938 46.4834C210.729 46.1032 210.625 45.6084 210.625 44.999V36.874Z" fill="#29282A"/>
<path d="M27.2812 67.9216C27.2282 67.451 27.0095 67.0864 26.625 66.8279C26.2405 66.566 25.7566 66.4351 25.1733 66.4351C24.7557 66.4351 24.3944 66.5014 24.0895 66.634C23.7846 66.7632 23.5476 66.9422 23.3786 67.1709C23.2128 67.3963 23.13 67.6531 23.13 67.9415C23.13 68.1834 23.1863 68.3923 23.299 68.5679C23.415 68.7436 23.5658 68.8911 23.7514 69.0104C23.9403 69.1264 24.1425 69.2242 24.358 69.3037C24.5734 69.3799 24.7805 69.4429 24.9794 69.4926L25.9737 69.7512C26.2985 69.8307 26.6316 69.9384 26.973 70.0743C27.3144 70.2102 27.6309 70.3892 27.9226 70.6112C28.2143 70.8333 28.4496 71.1084 28.6286 71.4365C28.8108 71.7646 28.902 72.1574 28.902 72.6148C28.902 73.1915 28.7528 73.7036 28.4545 74.151C28.1596 74.5985 27.7304 74.9514 27.1669 75.21C26.6068 75.4685 25.929 75.5977 25.1335 75.5977C24.3712 75.5977 23.7116 75.4768 23.1548 75.2348C22.598 74.9929 22.1622 74.6498 21.8473 74.2057C21.5324 73.7583 21.3584 73.228 21.3253 72.6148H22.8665C22.8963 72.9827 23.0156 73.2893 23.2244 73.5345C23.4366 73.7765 23.7067 73.9571 24.0348 74.0764C24.3662 74.1924 24.7292 74.2504 25.1236 74.2504C25.5578 74.2504 25.9439 74.1825 26.282 74.0466C26.6233 73.9074 26.8918 73.7152 27.0874 73.4699C27.2829 73.2213 27.3807 72.9313 27.3807 72.5999C27.3807 72.2983 27.2945 72.0513 27.1222 71.8591C26.9531 71.6669 26.7228 71.5078 26.4311 71.3818C26.1428 71.2559 25.8163 71.1449 25.4517 71.0487L24.2486 70.7206C23.4332 70.4985 22.7869 70.1721 22.3097 69.7412C21.8357 69.3103 21.5987 68.7403 21.5987 68.031C21.5987 67.4443 21.7578 66.9323 22.076 66.4948C22.3942 66.0573 22.825 65.7175 23.3686 65.4756C23.9122 65.2303 24.5253 65.1077 25.2081 65.1077C25.8975 65.1077 26.5057 65.2287 27.0327 65.4706C27.563 65.7126 27.9806 66.0457 28.2855 66.4699C28.5904 66.8908 28.7495 67.3747 28.7628 67.9216H27.2812ZM30.6184 75.4287V67.7923H32.1049V75.4287H30.6184ZM31.3691 66.6141C31.1106 66.6141 30.8886 66.5279 30.7029 66.3556C30.5207 66.1799 30.4295 65.9711 30.4295 65.7291C30.4295 65.4839 30.5207 65.2751 30.7029 65.1027C30.8886 64.9271 31.1106 64.8392 31.3691 64.8392C31.6277 64.8392 31.8481 64.9271 32.0304 65.1027C32.216 65.2751 32.3088 65.4839 32.3088 65.7291C32.3088 65.9711 32.216 66.1799 32.0304 66.3556C31.8481 66.5279 31.6277 66.6141 31.3691 66.6141ZM34.1048 75.4287V67.7923H35.5316V69.0352H35.6261C35.7852 68.6143 36.0453 68.2862 36.4066 68.0509C36.7679 67.8122 37.2004 67.6929 37.7042 67.6929C38.2146 67.6929 38.6422 67.8122 38.9869 68.0509C39.3349 68.2895 39.5917 68.6176 39.7575 69.0352H39.837C40.0193 68.6276 40.3093 68.3028 40.707 68.0608C41.1048 67.8155 41.5787 67.6929 42.1289 67.6929C42.8216 67.6929 43.3867 67.91 43.8242 68.3442C44.265 68.7784 44.4854 69.433 44.4854 70.308V75.4287H42.9989V70.4472C42.9989 69.9301 42.8581 69.5556 42.5763 69.3236C42.2946 69.0916 41.9582 68.9756 41.5671 68.9756C41.0832 68.9756 40.707 69.1247 40.4386 69.423C40.1701 69.718 40.0359 70.0975 40.0359 70.5615V75.4287H38.5543V70.3527C38.5543 69.9384 38.4251 69.6053 38.1665 69.3534C37.908 69.1015 37.5716 68.9756 37.1573 68.9756C36.8756 68.9756 36.6154 69.0502 36.3768 69.1993C36.1415 69.3451 35.9509 69.549 35.805 69.8108C35.6625 70.0727 35.5913 70.3759 35.5913 70.7206V75.4287H34.1048ZM46.4778 78.2923V67.7923H47.9295V69.0303H48.0538C48.14 68.8712 48.2643 68.6872 48.4267 68.4784C48.5891 68.2696 48.8145 68.0873 49.1028 67.9316C49.3912 67.7725 49.7723 67.6929 50.2463 67.6929C50.8627 67.6929 51.4129 67.8487 51.8968 68.1602C52.3807 68.4718 52.7602 68.9209 53.0353 69.5075C53.3137 70.0942 53.4529 70.8002 53.4529 71.6254C53.4529 72.4507 53.3154 73.1584 53.0403 73.7483C52.7652 74.335 52.3874 74.7874 51.9068 75.1056C51.4262 75.4204 50.8777 75.5779 50.2612 75.5779C49.7972 75.5779 49.4177 75.5 49.1227 75.3442C48.831 75.1884 48.6023 75.0061 48.4366 74.7973C48.2709 74.5885 48.1433 74.4029 48.0538 74.2405H47.9643V78.2923H46.4778ZM47.9345 71.6105C47.9345 72.1475 48.0124 72.6181 48.1681 73.0225C48.3239 73.4268 48.5493 73.7433 48.8443 73.972C49.1393 74.1974 49.5005 74.3101 49.9281 74.3101C50.3722 74.3101 50.7434 74.1924 51.0417 73.9571C51.34 73.7185 51.5654 73.3953 51.7179 72.9877C51.8736 72.58 51.9515 72.1209 51.9515 71.6105C51.9515 71.1067 51.8753 70.6543 51.7228 70.2533C51.5737 69.8522 51.3483 69.5357 51.0467 69.3037C50.7484 69.0717 50.3755 68.9557 49.9281 68.9557C49.4972 68.9557 49.1326 69.0667 48.8343 69.2888C48.5394 69.5109 48.3156 69.8208 48.1632 70.2185C48.0107 70.6162 47.9345 71.0802 47.9345 71.6105ZM56.6049 65.2469V75.4287H55.1184V65.2469H56.6049ZM61.896 75.5828C61.1436 75.5828 60.4956 75.4221 59.9521 75.1006C59.4118 74.7758 58.9942 74.32 58.6992 73.7334C58.4076 73.1434 58.2617 72.4524 58.2617 71.6602C58.2617 70.878 58.4076 70.1887 58.6992 69.5921C58.9942 68.9955 59.4052 68.5298 59.9322 68.195C60.4625 67.8603 61.0823 67.6929 61.7915 67.6929C62.2224 67.6929 62.64 67.7642 63.0444 67.9067C63.4487 68.0492 63.8117 68.2729 64.1332 68.5779C64.4547 68.8828 64.7082 69.2789 64.8938 69.7661C65.0794 70.25 65.1722 70.8383 65.1722 71.531V72.058H59.1019V70.9443H63.7156C63.7156 70.5532 63.636 70.2069 63.4769 69.9053C63.3178 69.6003 63.0941 69.3601 62.8058 69.1844C62.5207 69.0087 62.186 68.9209 61.8015 68.9209C61.3839 68.9209 61.0193 69.0236 60.7077 69.2291C60.3995 69.4313 60.1609 69.6965 59.9918 70.0246C59.8261 70.3494 59.7433 70.7024 59.7433 71.0835V71.9536C59.7433 72.464 59.8327 72.8982 60.0117 73.2561C60.194 73.6141 60.4476 73.8875 60.7724 74.0764C61.0972 74.262 61.4767 74.3548 61.9109 74.3548C62.1926 74.3548 62.4495 74.3151 62.6815 74.2355C62.9135 74.1527 63.114 74.03 63.283 73.8676C63.4521 73.7052 63.5813 73.5047 63.6708 73.2661L65.0778 73.5196C64.9651 73.9339 64.7629 74.2968 64.4712 74.6084C64.1829 74.9166 63.82 75.1569 63.3825 75.3293C62.9483 75.4983 62.4528 75.5828 61.896 75.5828ZM76.2489 69.6567L74.9016 69.8953C74.8453 69.723 74.7558 69.5589 74.6332 69.4031C74.5138 69.2474 74.3514 69.1198 74.146 69.0203C73.9405 68.9209 73.6836 68.8712 73.3754 68.8712C72.9544 68.8712 72.6031 68.9656 72.3214 69.1546C72.0397 69.3402 71.8988 69.5805 71.8988 69.8754C71.8988 70.1307 71.9933 70.3361 72.1822 70.4919C72.3711 70.6477 72.676 70.7753 73.0969 70.8747L74.31 71.1531C75.0127 71.3155 75.5363 71.5658 75.881 71.9039C76.2257 72.2419 76.3981 72.6811 76.3981 73.2213C76.3981 73.6787 76.2655 74.0864 76.0004 74.4443C75.7385 74.799 75.3723 75.0774 74.9016 75.2796C74.4343 75.4817 73.8924 75.5828 73.2759 75.5828C72.4208 75.5828 71.7231 75.4005 71.1829 75.036C70.6426 74.6681 70.3112 74.146 70.1886 73.4699L71.6254 73.2512C71.7148 73.6257 71.8988 73.9091 72.1772 74.1013C72.4556 74.2902 72.8185 74.3847 73.266 74.3847C73.7532 74.3847 74.1426 74.2836 74.4343 74.0814C74.726 73.8759 74.8718 73.6257 74.8718 73.3307C74.8718 73.0921 74.7823 72.8915 74.6033 72.7291C74.4277 72.5667 74.1576 72.4441 73.793 72.3612L72.5004 72.0779C71.7878 71.9155 71.2608 71.6569 70.9194 71.3023C70.5813 70.9477 70.4123 70.4985 70.4123 69.955C70.4123 69.5042 70.5382 69.1098 70.7901 68.7718C71.042 68.4337 71.39 68.1702 71.8342 67.9813C72.2783 67.789 72.7871 67.6929 73.3604 67.6929C74.1857 67.6929 74.8353 67.8719 75.3093 68.2298C75.7833 68.5845 76.0965 69.0601 76.2489 69.6567ZM79.688 75.4287L77.4409 67.7923H78.9771L80.4735 73.4003H80.5481L82.0495 67.7923H83.5858L85.0772 73.3754H85.1518L86.6383 67.7923H88.1745L85.9324 75.4287H84.416L82.8649 69.9152H82.7505L81.1994 75.4287H79.688ZM91.8075 75.5977C91.3236 75.5977 90.8861 75.5083 90.495 75.3293C90.1039 75.147 89.794 74.8835 89.5653 74.5388C89.34 74.1941 89.2273 73.7715 89.2273 73.271C89.2273 72.8402 89.3101 72.4855 89.4759 72.2071C89.6416 71.9287 89.8653 71.7083 90.147 71.5459C90.4287 71.3835 90.7436 71.2609 91.0916 71.178C91.4396 71.0951 91.7943 71.0322 92.1555 70.9891C92.6129 70.936 92.9841 70.893 93.2692 70.8598C93.5542 70.8234 93.7614 70.7654 93.8906 70.6858C94.0199 70.6063 94.0845 70.477 94.0845 70.298V70.2632C94.0845 69.829 93.9619 69.4926 93.7166 69.254C93.4747 69.0154 93.1134 68.896 92.6328 68.896C92.1323 68.896 91.7379 69.0071 91.4496 69.2291C91.1645 69.4479 90.9673 69.6915 90.858 69.96L89.4609 69.6418C89.6267 69.1778 89.8686 68.8032 90.1868 68.5182C90.5083 68.2298 90.8778 68.021 91.2955 67.8918C91.7131 67.7592 92.1522 67.6929 92.6129 67.6929C92.9179 67.6929 93.241 67.7294 93.5824 67.8023C93.9271 67.8719 94.2486 68.0012 94.5469 68.1901C94.8485 68.379 95.0954 68.6491 95.2876 69.0004C95.4799 69.3485 95.576 69.8009 95.576 70.3577V75.4287H94.1243V74.3847H94.0646C93.9685 74.5769 93.8243 74.7658 93.6321 74.9514C93.4399 75.137 93.1929 75.2912 92.8913 75.4138C92.5897 75.5364 92.2285 75.5977 91.8075 75.5977ZM92.1307 74.4046C92.5417 74.4046 92.893 74.3234 93.1847 74.161C93.4796 73.9985 93.7034 73.7864 93.8558 73.5246C94.0116 73.2594 94.0895 72.9761 94.0895 72.6744V71.6901C94.0365 71.7431 93.9337 71.7928 93.7812 71.8392C93.6321 71.8823 93.4614 71.9204 93.2692 71.9536C93.0769 71.9834 92.8897 72.0116 92.7074 72.0381C92.5251 72.0613 92.3726 72.0812 92.25 72.0977C91.9616 72.1342 91.6982 72.1955 91.4595 72.2817C91.2242 72.3679 91.0353 72.4922 90.8928 72.6546C90.7536 72.8137 90.6839 73.0258 90.6839 73.2909C90.6839 73.6588 90.8198 73.9372 91.0916 74.1262C91.3634 74.3118 91.7098 74.4046 92.1307 74.4046ZM97.5559 78.2923V67.7923H99.0076V69.0303H99.1319C99.2181 68.8712 99.3424 68.6872 99.5048 68.4784C99.6672 68.2696 99.8926 68.0873 100.181 67.9316C100.469 67.7725 100.85 67.6929 101.324 67.6929C101.941 67.6929 102.491 67.8487 102.975 68.1602C103.459 68.4718 103.838 68.9209 104.113 69.5075C104.392 70.0942 104.531 70.8002 104.531 71.6254C104.531 72.4507 104.394 73.1584 104.118 73.7483C103.843 74.335 103.465 74.7874 102.985 75.1056C102.504 75.4204 101.956 75.5779 101.339 75.5779C100.875 75.5779 100.496 75.5 100.201 75.3442C99.9092 75.1884 99.6805 75.0061 99.5147 74.7973C99.349 74.5885 99.2214 74.4029 99.1319 74.2405H99.0424V78.2923H97.5559ZM99.0126 71.6105C99.0126 72.1475 99.0905 72.6181 99.2463 73.0225C99.402 73.4268 99.6274 73.7433 99.9224 73.972C100.217 74.1974 100.579 74.3101 101.006 74.3101C101.45 74.3101 101.822 74.1924 102.12 73.9571C102.418 73.7185 102.644 73.3953 102.796 72.9877C102.952 72.58 103.03 72.1209 103.03 71.6105C103.03 71.1067 102.953 70.6543 102.801 70.2533C102.652 69.8522 102.426 69.5357 102.125 69.3037C101.827 69.0717 101.454 68.9557 101.006 68.9557C100.575 68.9557 100.211 69.0667 99.9125 69.2888C99.6175 69.5109 99.3938 69.8208 99.2413 70.2185C99.0888 70.6162 99.0126 71.0802 99.0126 71.6105ZM109.902 75.4287V67.7923H111.388V75.4287H109.902ZM110.652 66.6141C110.394 66.6141 110.172 66.5279 109.986 66.3556C109.804 66.1799 109.713 65.9711 109.713 65.7291C109.713 65.4839 109.804 65.2751 109.986 65.1027C110.172 64.9271 110.394 64.8392 110.652 64.8392C110.911 64.8392 111.131 64.9271 111.314 65.1027C111.499 65.2751 111.592 65.4839 111.592 65.7291C111.592 65.9711 111.499 66.1799 111.314 66.3556C111.131 66.5279 110.911 66.6141 110.652 66.6141ZM114.874 70.8946V75.4287H113.388V67.7923H114.815V69.0352H114.909C115.085 68.6309 115.36 68.3061 115.735 68.0608C116.112 67.8155 116.588 67.6929 117.161 67.6929C117.682 67.6929 118.137 67.8023 118.529 68.021C118.92 68.2365 119.223 68.558 119.438 68.9855C119.654 69.4131 119.762 69.9417 119.762 70.5715V75.4287H118.275V70.7504C118.275 70.1969 118.131 69.7644 117.843 69.4529C117.554 69.138 117.158 68.9806 116.654 68.9806C116.31 68.9806 116.003 69.0551 115.735 69.2043C115.469 69.3534 115.259 69.5722 115.103 69.8605C114.951 70.1456 114.874 70.4903 114.874 70.8946ZM131.183 69.6567L129.835 69.8953C129.779 69.723 129.689 69.5589 129.567 69.4031C129.447 69.2474 129.285 69.1198 129.08 69.0203C128.874 68.9209 128.617 68.8712 128.309 68.8712C127.888 68.8712 127.537 68.9656 127.255 69.1546C126.973 69.3402 126.832 69.5805 126.832 69.8754C126.832 70.1307 126.927 70.3361 127.116 70.4919C127.305 70.6477 127.61 70.7753 128.031 70.8747L129.244 71.1531C129.946 71.3155 130.47 71.5658 130.815 71.9039C131.159 72.2419 131.332 72.6811 131.332 73.2213C131.332 73.6787 131.199 74.0864 130.934 74.4443C130.672 74.799 130.306 75.0774 129.835 75.2796C129.368 75.4817 128.826 75.5828 128.21 75.5828C127.354 75.5828 126.657 75.4005 126.116 75.036C125.576 74.6681 125.245 74.146 125.122 73.4699L126.559 73.2512C126.648 73.6257 126.832 73.9091 127.111 74.1013C127.389 74.2902 127.752 74.3847 128.2 74.3847C128.687 74.3847 129.076 74.2836 129.368 74.0814C129.66 73.8759 129.805 73.6257 129.805 73.3307C129.805 73.0921 129.716 72.8915 129.537 72.7291C129.361 72.5667 129.091 72.4441 128.727 72.3612L127.434 72.0779C126.721 71.9155 126.194 71.6569 125.853 71.3023C125.515 70.9477 125.346 70.4985 125.346 69.955C125.346 69.5042 125.472 69.1098 125.724 68.7718C125.976 68.4337 126.324 68.1702 126.768 67.9813C127.212 67.789 127.721 67.6929 128.294 67.6929C129.119 67.6929 129.769 67.8719 130.243 68.2298C130.717 68.5845 131.03 69.0601 131.183 69.6567ZM132.966 75.4287V67.7923H134.453V75.4287H132.966ZM133.717 66.6141C133.458 66.6141 133.236 66.5279 133.051 66.3556C132.868 66.1799 132.777 65.9711 132.777 65.7291C132.777 65.4839 132.868 65.2751 133.051 65.1027C133.236 64.9271 133.458 64.8392 133.717 64.8392C133.975 64.8392 134.196 64.9271 134.378 65.1027C134.564 65.2751 134.656 65.4839 134.656 65.7291C134.656 65.9711 134.564 66.1799 134.378 66.3556C134.196 66.5279 133.975 66.6141 133.717 66.6141ZM137.939 70.8946V75.4287H136.452V67.7923H137.879V69.0352H137.974C138.149 68.6309 138.424 68.3061 138.799 68.0608C139.177 67.8155 139.652 67.6929 140.226 67.6929C140.746 67.6929 141.202 67.8023 141.593 68.021C141.984 68.2365 142.287 68.558 142.503 68.9855C142.718 69.4131 142.826 69.9417 142.826 70.5715V75.4287H141.339V70.7504C141.339 70.1969 141.195 69.7644 140.907 69.4529C140.619 69.138 140.223 68.9806 139.719 68.9806C139.374 68.9806 139.067 69.0551 138.799 69.2043C138.534 69.3534 138.323 69.5722 138.168 69.8605C138.015 70.1456 137.939 70.4903 137.939 70.8946ZM148.021 78.4514C147.415 78.4514 146.893 78.3719 146.455 78.2128C146.021 78.0537 145.666 77.8432 145.391 77.5814C145.116 77.3196 144.911 77.0329 144.775 76.7213L146.053 76.1943C146.142 76.3402 146.261 76.4943 146.411 76.6567C146.563 76.8224 146.768 76.9633 147.027 77.0793C147.289 77.1953 147.625 77.2533 148.036 77.2533C148.6 77.2533 149.065 77.1157 149.433 76.8406C149.801 76.5689 149.985 76.1347 149.985 75.5381V74.0367H149.891C149.801 74.1991 149.672 74.3797 149.503 74.5786C149.337 74.7774 149.108 74.9498 148.817 75.0956C148.525 75.2414 148.146 75.3144 147.678 75.3144C147.075 75.3144 146.531 75.1735 146.048 74.8918C145.567 74.6067 145.186 74.1875 144.904 73.634C144.626 73.0771 144.487 72.3927 144.487 71.5807C144.487 70.7687 144.624 70.0727 144.899 69.4926C145.178 68.9126 145.559 68.4685 146.043 68.1602C146.527 67.8487 147.075 67.6929 147.688 67.6929C148.162 67.6929 148.545 67.7725 148.837 67.9316C149.128 68.0873 149.355 68.2696 149.518 68.4784C149.683 68.6872 149.811 68.8712 149.901 69.0303H150.01V67.7923H151.467V75.5977C151.467 76.254 151.314 76.7926 151.009 77.2135C150.704 77.6344 150.292 77.946 149.771 78.1482C149.254 78.3503 148.671 78.4514 148.021 78.4514ZM148.006 74.0814C148.434 74.0814 148.795 73.982 149.09 73.7831C149.388 73.5809 149.614 73.2926 149.766 72.9181C149.922 72.5402 150 72.0878 150 71.5608C150 71.0471 149.924 70.5947 149.771 70.2036C149.619 69.8125 149.395 69.5075 149.1 69.2888C148.805 69.0667 148.441 68.9557 148.006 68.9557C147.559 68.9557 147.186 69.0717 146.888 69.3037C146.589 69.5324 146.364 69.844 146.212 70.2384C146.063 70.6328 145.988 71.0736 145.988 71.5608C145.988 72.0613 146.064 72.5004 146.217 72.8783C146.369 73.2561 146.594 73.5511 146.893 73.7632C147.194 73.9753 147.566 74.0814 148.006 74.0814ZM154.947 65.2469V75.4287H153.46V65.2469H154.947ZM160.238 75.5828C159.485 75.5828 158.837 75.4221 158.294 75.1006C157.754 74.7758 157.336 74.32 157.041 73.7334C156.749 73.1434 156.604 72.4524 156.604 71.6602C156.604 70.878 156.749 70.1887 157.041 69.5921C157.336 68.9955 157.747 68.5298 158.274 68.195C158.804 67.8603 159.424 67.6929 160.133 67.6929C160.564 67.6929 160.982 67.7642 161.386 67.9067C161.791 68.0492 162.153 68.2729 162.475 68.5779C162.796 68.8828 163.05 69.2789 163.236 69.7661C163.421 70.25 163.514 70.8383 163.514 71.531V72.058H157.444V70.9443H162.057C162.057 70.5532 161.978 70.2069 161.819 69.9053C161.66 69.6003 161.436 69.3601 161.148 69.1844C160.863 69.0087 160.528 68.9209 160.143 68.9209C159.726 68.9209 159.361 69.0236 159.05 69.2291C158.741 69.4313 158.503 69.6965 158.334 70.0246C158.168 70.3494 158.085 70.7024 158.085 71.0835V71.9536C158.085 72.464 158.175 72.8982 158.354 73.2561C158.536 73.6141 158.789 73.8875 159.114 74.0764C159.439 74.262 159.818 74.3548 160.253 74.3548C160.534 74.3548 160.791 74.3151 161.023 74.2355C161.255 74.1527 161.456 74.03 161.625 73.8676C161.794 73.7052 161.923 73.5047 162.013 73.2661L163.42 73.5196C163.307 73.9339 163.105 74.2968 162.813 74.6084C162.525 74.9166 162.162 75.1569 161.724 75.3293C161.29 75.4983 160.795 75.5828 160.238 75.5828ZM170.355 70.8946V75.4287H168.868V67.7923H170.295V69.0352H170.39C170.565 68.6309 170.84 68.3061 171.215 68.0608C171.593 67.8155 172.068 67.6929 172.642 67.6929C173.162 67.6929 173.618 67.8023 174.009 68.021C174.4 68.2365 174.703 68.558 174.919 68.9855C175.134 69.4131 175.242 69.9417 175.242 70.5715V75.4287H173.756V70.7504C173.756 70.1969 173.611 69.7644 173.323 69.4529C173.035 69.138 172.639 68.9806 172.135 68.9806C171.79 68.9806 171.483 69.0551 171.215 69.2043C170.95 69.3534 170.739 69.5722 170.584 69.8605C170.431 70.1456 170.355 70.4903 170.355 70.8946ZM180.527 75.5828C179.774 75.5828 179.126 75.4221 178.583 75.1006C178.043 74.7758 177.625 74.32 177.33 73.7334C177.038 73.1434 176.893 72.4524 176.893 71.6602C176.893 70.878 177.038 70.1887 177.33 69.5921C177.625 68.9955 178.036 68.5298 178.563 68.195C179.093 67.8603 179.713 67.6929 180.422 67.6929C180.853 67.6929 181.271 67.7642 181.675 67.9067C182.08 68.0492 182.443 68.2729 182.764 68.5779C183.086 68.8828 183.339 69.2789 183.525 69.7661C183.71 70.25 183.803 70.8383 183.803 71.531V72.058H177.733V70.9443H182.346C182.346 70.5532 182.267 70.2069 182.108 69.9053C181.949 69.6003 181.725 69.3601 181.437 69.1844C181.152 69.0087 180.817 68.9209 180.432 68.9209C180.015 68.9209 179.65 69.0236 179.339 69.2291C179.03 69.4313 178.792 69.6965 178.623 70.0246C178.457 70.3494 178.374 70.7024 178.374 71.0835V71.9536C178.374 72.464 178.464 72.8982 178.643 73.2561C178.825 73.6141 179.078 73.8875 179.403 74.0764C179.728 74.262 180.108 74.3548 180.542 74.3548C180.823 74.3548 181.08 74.3151 181.312 74.2355C181.544 74.1527 181.745 74.03 181.914 73.8676C182.083 73.7052 182.212 73.5047 182.302 73.2661L183.709 73.5196C183.596 73.9339 183.394 74.2968 183.102 74.6084C182.814 74.9166 182.451 75.1569 182.013 75.3293C181.579 75.4983 181.084 75.5828 180.527 75.5828ZM189.017 67.7923V68.9855H184.846V67.7923H189.017ZM185.964 65.9628H187.451V73.1865C187.451 73.4749 187.494 73.692 187.58 73.8378C187.666 73.9803 187.777 74.0781 187.913 74.1311C188.053 74.1808 188.203 74.2057 188.366 74.2057C188.485 74.2057 188.589 74.1974 188.679 74.1808C188.768 74.1643 188.838 74.151 188.888 74.1411L189.156 75.3691C189.07 75.4022 188.947 75.4353 188.788 75.4685C188.629 75.5049 188.43 75.5248 188.192 75.5281C187.801 75.5348 187.436 75.4652 187.098 75.3193C186.76 75.1735 186.487 74.9481 186.278 74.6432C186.069 74.3383 185.964 73.9555 185.964 73.4948V65.9628ZM192.317 75.4287L190.07 67.7923H191.606L193.102 73.4003H193.177L194.678 67.7923H196.215L197.706 73.3754H197.781L199.267 67.7923H200.803L198.561 75.4287H197.045L195.494 69.9152H195.379L193.828 75.4287H192.317ZM205.198 75.5828C204.482 75.5828 203.858 75.4188 203.324 75.0906C202.79 74.7625 202.376 74.3035 202.081 73.7135C201.786 73.1235 201.639 72.4342 201.639 71.6453C201.639 70.8532 201.786 70.1605 202.081 69.5672C202.376 68.9739 202.79 68.5132 203.324 68.1851C203.858 67.857 204.482 67.6929 205.198 67.6929C205.914 67.6929 206.539 67.857 207.073 68.1851C207.606 68.5132 208.021 68.9739 208.316 69.5672C208.61 70.1605 208.758 70.8532 208.758 71.6453C208.758 72.4342 208.61 73.1235 208.316 73.7135C208.021 74.3035 207.606 74.7625 207.073 75.0906C206.539 75.4188 205.914 75.5828 205.198 75.5828ZM205.203 74.335C205.667 74.335 206.052 74.2123 206.357 73.9671C206.662 73.7218 206.887 73.3953 207.033 72.9877C207.182 72.58 207.257 72.1309 207.257 71.6404C207.257 71.1531 207.182 70.7057 207.033 70.298C206.887 69.887 206.662 69.5573 206.357 69.3087C206.052 69.0601 205.667 68.9358 205.203 68.9358C204.736 68.9358 204.348 69.0601 204.04 69.3087C203.735 69.5573 203.508 69.887 203.359 70.298C203.213 70.7057 203.14 71.1531 203.14 71.6404C203.14 72.1309 203.213 72.58 203.359 72.9877C203.508 73.3953 203.735 73.7218 204.04 73.9671C204.348 74.2123 204.736 74.335 205.203 74.335ZM210.417 75.4287V67.7923H211.854V69.0054H211.934C212.073 68.5944 212.318 68.2713 212.669 68.036C213.024 67.7973 213.425 67.678 213.873 67.678C213.965 67.678 214.075 67.6813 214.201 67.6879C214.33 67.6946 214.431 67.7029 214.504 67.7128V69.1347C214.444 69.1181 214.338 69.0999 214.186 69.08C214.033 69.0568 213.881 69.0452 213.728 69.0452C213.377 69.0452 213.064 69.1198 212.789 69.2689C212.517 69.4147 212.301 69.6186 212.142 69.8804C211.983 70.1389 211.904 70.4339 211.904 70.7654V75.4287H210.417ZM217.157 72.8385L217.148 71.0239H217.406L220.449 67.7923H222.229L218.758 71.4713H218.525L217.157 72.8385ZM215.79 75.4287V65.2469H217.277V75.4287H215.79ZM220.613 75.4287L217.878 71.7994L218.903 70.7604L222.437 75.4287H220.613ZM229.511 75.5977C229.027 75.5977 228.589 75.5083 228.198 75.3293C227.807 75.147 227.497 74.8835 227.268 74.5388C227.043 74.1941 226.93 73.7715 226.93 73.271C226.93 72.8402 227.013 72.4855 227.179 72.2071C227.345 71.9287 227.568 71.7083 227.85 71.5459C228.132 71.3835 228.447 71.2609 228.795 71.178C229.143 71.0951 229.497 71.0322 229.859 70.9891C230.316 70.936 230.687 70.893 230.972 70.8598C231.257 70.8234 231.464 70.7654 231.594 70.6858C231.723 70.6063 231.788 70.477 231.788 70.298V70.2632C231.788 69.829 231.665 69.4926 231.42 69.254C231.178 69.0154 230.817 68.896 230.336 68.896C229.835 68.896 229.441 69.0071 229.153 69.2291C228.868 69.4479 228.67 69.6915 228.561 69.96L227.164 69.6418C227.33 69.1778 227.572 68.8032 227.89 68.5182C228.211 68.2298 228.581 68.021 228.999 67.8918C229.416 67.7592 229.855 67.6929 230.316 67.6929C230.621 67.6929 230.944 67.7294 231.286 67.8023C231.63 67.8719 231.952 68.0012 232.25 68.1901C232.552 68.379 232.799 68.6491 232.991 69.0004C233.183 69.3485 233.279 69.8009 233.279 70.3577V75.4287H231.827V74.3847H231.768C231.672 74.5769 231.527 74.7658 231.335 74.9514C231.143 75.137 230.896 75.2912 230.594 75.4138C230.293 75.5364 229.932 75.5977 229.511 75.5977ZM229.834 74.4046C230.245 74.4046 230.596 74.3234 230.888 74.161C231.183 73.9985 231.406 73.7864 231.559 73.5246C231.715 73.2594 231.793 72.9761 231.793 72.6744V71.6901C231.74 71.7431 231.637 71.7928 231.484 71.8392C231.335 71.8823 231.165 71.9204 230.972 71.9536C230.78 71.9834 230.593 72.0116 230.411 72.0381C230.228 72.0613 230.076 72.0812 229.953 72.0977C229.665 72.1342 229.401 72.1955 229.163 72.2817C228.927 72.3679 228.738 72.4922 228.596 72.6546C228.457 72.8137 228.387 73.0258 228.387 73.2909C228.387 73.6588 228.523 73.9372 228.795 74.1262C229.067 74.3118 229.413 74.4046 229.834 74.4046ZM236.746 70.8946V75.4287H235.259V67.7923H236.686V69.0352H236.78C236.956 68.6309 237.231 68.3061 237.606 68.0608C237.983 67.8155 238.459 67.6929 239.032 67.6929C239.553 67.6929 240.009 67.8023 240.4 68.021C240.791 68.2365 241.094 68.558 241.309 68.9855C241.525 69.4131 241.633 69.9417 241.633 70.5715V75.4287H240.146V70.7504C240.146 70.1969 240.002 69.7644 239.714 69.4529C239.425 69.138 239.029 68.9806 238.525 68.9806C238.181 68.9806 237.874 69.0551 237.606 69.2043C237.34 69.3534 237.13 69.5722 236.974 69.8605C236.822 70.1456 236.746 70.4903 236.746 70.8946ZM246.485 75.5779C245.868 75.5779 245.318 75.4204 244.834 75.1056C244.354 74.7874 243.976 74.335 243.701 73.7483C243.429 73.1584 243.293 72.4507 243.293 71.6254C243.293 70.8002 243.431 70.0942 243.706 69.5075C243.984 68.9209 244.365 68.4718 244.849 68.1602C245.333 67.8487 245.882 67.6929 246.495 67.6929C246.969 67.6929 247.35 67.7725 247.638 67.9316C247.93 68.0873 248.155 68.2696 248.314 68.4784C248.477 68.6872 248.603 68.8712 248.692 69.0303H248.782V65.2469H250.268V75.4287H248.817V74.2405H248.692C248.603 74.4029 248.474 74.5885 248.305 74.7973C248.139 75.0061 247.91 75.1884 247.618 75.3442C247.327 75.5 246.949 75.5779 246.485 75.5779ZM246.813 74.3101C247.241 74.3101 247.602 74.1974 247.897 73.972C248.195 73.7433 248.421 73.4268 248.573 73.0225C248.729 72.6181 248.807 72.1475 248.807 71.6105C248.807 71.0802 248.73 70.6162 248.578 70.2185C248.425 69.8208 248.202 69.5109 247.907 69.2888C247.612 69.0667 247.247 68.9557 246.813 68.9557C246.366 68.9557 245.993 69.0717 245.694 69.3037C245.396 69.5357 245.171 69.8522 245.018 70.2533C244.869 70.6543 244.795 71.1067 244.795 71.6105C244.795 72.1209 244.871 72.58 245.023 72.9877C245.176 73.3953 245.401 73.7185 245.699 73.9571C246.001 74.1924 246.372 74.3101 246.813 74.3101ZM64.6689 89.6567L63.3216 89.8953C63.2652 89.723 63.1757 89.5589 63.0531 89.4031C62.9338 89.2474 62.7714 89.1198 62.5659 89.0203C62.3604 88.9209 62.1035 88.8712 61.7953 88.8712C61.3743 88.8712 61.023 88.9656 60.7413 89.1546C60.4596 89.3402 60.3187 89.5805 60.3187 89.8754C60.3187 90.1307 60.4132 90.3361 60.6021 90.4919C60.791 90.6477 61.0959 90.7753 61.5169 90.8747L62.7299 91.1531C63.4326 91.3155 63.9563 91.5658 64.301 91.9039C64.6457 92.2419 64.818 92.6811 64.818 93.2213C64.818 93.6787 64.6854 94.0864 64.4203 94.4443C64.1584 94.799 63.7922 95.0774 63.3216 95.2796C62.8542 95.4817 62.3123 95.5828 61.6958 95.5828C60.8407 95.5828 60.1431 95.4005 59.6028 95.036C59.0626 94.6681 58.7311 94.146 58.6085 93.4699L60.0453 93.2512C60.1348 93.6257 60.3187 93.9091 60.5971 94.1013C60.8755 94.2902 61.2385 94.3847 61.6859 94.3847C62.1731 94.3847 62.5626 94.2836 62.8542 94.0814C63.1459 93.8759 63.2917 93.6257 63.2917 93.3307C63.2917 93.0921 63.2022 92.8915 63.0233 92.7291C62.8476 92.5667 62.5775 92.4441 62.2129 92.3612L60.9203 92.0779C60.2077 91.9155 59.6807 91.6569 59.3393 91.3023C59.0012 90.9477 58.8322 90.4985 58.8322 89.955C58.8322 89.5042 58.9582 89.1098 59.21 88.7718C59.4619 88.4337 59.81 88.1702 60.2541 87.9813C60.6982 87.789 61.207 87.6929 61.7804 87.6929C62.6056 87.6929 63.2553 87.8719 63.7292 88.2298C64.2032 88.5845 64.5164 89.0601 64.6689 89.6567ZM68.108 95.4287L65.8608 87.7923H67.397L68.8935 93.4003H68.968L70.4695 87.7923H72.0057L73.4972 93.3754H73.5717L75.0582 87.7923H76.5945L74.3523 95.4287H72.8359L71.2848 89.9152H71.1705L69.6193 95.4287H68.108ZM80.2275 95.5977C79.7435 95.5977 79.306 95.5083 78.915 95.3293C78.5239 95.147 78.214 94.8835 77.9853 94.5388C77.7599 94.1941 77.6472 93.7715 77.6472 93.271C77.6472 92.8402 77.7301 92.4855 77.8958 92.2071C78.0615 91.9287 78.2852 91.7083 78.5669 91.5459C78.8487 91.3835 79.1635 91.2609 79.5115 91.178C79.8596 91.0951 80.2142 91.0322 80.5755 90.9891C81.0328 90.936 81.4041 90.893 81.6891 90.8598C81.9741 90.8234 82.1813 90.7654 82.3105 90.6858C82.4398 90.6063 82.5044 90.477 82.5044 90.298V90.2632C82.5044 89.829 82.3818 89.4926 82.1365 89.254C81.8946 89.0154 81.5333 88.896 81.0527 88.896C80.5523 88.896 80.1578 89.0071 79.8695 89.2291C79.5845 89.4479 79.3873 89.6915 79.2779 89.96L77.8809 89.6418C78.0466 89.1778 78.2885 88.8032 78.6067 88.5182C78.9282 88.2298 79.2978 88.021 79.7154 87.8918C80.133 87.7592 80.5721 87.6929 81.0328 87.6929C81.3378 87.6929 81.6609 87.7294 82.0023 87.8023C82.347 87.8719 82.6685 88.0012 82.9668 88.1901C83.2684 88.379 83.5153 88.6491 83.7076 89.0004C83.8998 89.3485 83.9959 89.8009 83.9959 90.3577V95.4287H82.5442V94.3847H82.4846C82.3884 94.5769 82.2443 94.7658 82.052 94.9514C81.8598 95.137 81.6129 95.2912 81.3113 95.4138C81.0096 95.5364 80.6484 95.5977 80.2275 95.5977ZM80.5506 94.4046C80.9616 94.4046 81.3129 94.3234 81.6046 94.161C81.8996 93.9985 82.1233 93.7864 82.2757 93.5246C82.4315 93.2594 82.5094 92.9761 82.5094 92.6744V91.6901C82.4564 91.7431 82.3536 91.7928 82.2012 91.8392C82.052 91.8823 81.8813 91.9204 81.6891 91.9536C81.4969 91.9834 81.3096 92.0116 81.1273 92.0381C80.945 92.0613 80.7926 92.0812 80.6699 92.0977C80.3816 92.1342 80.1181 92.1955 79.8794 92.2817C79.6441 92.3679 79.4552 92.4922 79.3127 92.6546C79.1735 92.8137 79.1039 93.0258 79.1039 93.2909C79.1039 93.6588 79.2398 93.9372 79.5115 94.1262C79.7833 94.3118 80.1297 94.4046 80.5506 94.4046ZM85.9759 98.2923V87.7923H87.4276V89.0303H87.5518C87.638 88.8712 87.7623 88.6872 87.9247 88.4784C88.0871 88.2696 88.3125 88.0873 88.6009 87.9316C88.8892 87.7725 89.2704 87.6929 89.7443 87.6929C90.3608 87.6929 90.911 87.8487 91.3949 88.1602C91.8788 88.4718 92.2583 88.9209 92.5334 89.5075C92.8118 90.0942 92.951 90.8002 92.951 91.6254C92.951 92.4507 92.8134 93.1584 92.5384 93.7483C92.2633 94.335 91.8854 94.7874 91.4048 95.1056C90.9242 95.4204 90.3757 95.5779 89.7592 95.5779C89.2952 95.5779 88.9157 95.5 88.6207 95.3442C88.3291 95.1884 88.1004 95.0061 87.9347 94.7973C87.7689 94.5885 87.6413 94.4029 87.5518 94.2405H87.4624V98.2923H85.9759ZM87.4325 91.6105C87.4325 92.1475 87.5104 92.6181 87.6662 93.0225C87.822 93.4268 88.0473 93.7433 88.3423 93.972C88.6373 94.1974 88.9986 94.3101 89.4261 94.3101C89.8703 94.3101 90.2415 94.1924 90.5398 93.9571C90.8381 93.7185 91.0634 93.3953 91.2159 92.9877C91.3717 92.58 91.4496 92.1209 91.4496 91.6105C91.4496 91.1067 91.3733 90.6543 91.2209 90.2533C91.0717 89.8522 90.8464 89.5357 90.5447 89.3037C90.2464 89.0717 89.8736 88.9557 89.4261 88.9557C88.9953 88.9557 88.6307 89.0667 88.3324 89.2888C88.0374 89.5109 87.8137 89.8208 87.6612 90.2185C87.5088 90.6162 87.4325 91.0802 87.4325 91.6105ZM98.4409 95.4287V85.2469H99.9274V89.0303H100.017C100.103 88.8712 100.227 88.6872 100.39 88.4784C100.552 88.2696 100.778 88.0873 101.066 87.9316C101.354 87.7725 101.735 87.6929 102.209 87.6929C102.826 87.6929 103.376 87.8487 103.86 88.1602C104.344 88.4718 104.723 88.9209 104.998 89.5075C105.277 90.0942 105.416 90.8002 105.416 91.6254C105.416 92.4507 105.278 93.1584 105.003 93.7483C104.728 94.335 104.35 94.7874 103.87 95.1056C103.389 95.4204 102.841 95.5779 102.224 95.5779C101.76 95.5779 101.381 95.5 101.086 95.3442C100.794 95.1884 100.565 95.0061 100.4 94.7973C100.234 94.5885 100.106 94.4029 100.017 94.2405H99.8926V95.4287H98.4409ZM99.8975 91.6105C99.8975 92.1475 99.9754 92.6181 100.131 93.0225C100.287 93.4268 100.512 93.7433 100.807 93.972C101.102 94.1974 101.464 94.3101 101.891 94.3101C102.335 94.3101 102.706 94.1924 103.005 93.9571C103.303 93.7185 103.528 93.3953 103.681 92.9877C103.837 92.58 103.915 92.1209 103.915 91.6105C103.915 91.1067 103.838 90.6543 103.686 90.2533C103.537 89.8522 103.311 89.5357 103.01 89.3037C102.711 89.0717 102.339 88.9557 101.891 88.9557C101.46 88.9557 101.096 89.0667 100.797 89.2888C100.502 89.5109 100.279 89.8208 100.126 90.2185C99.9738 90.6162 99.8975 91.0802 99.8975 91.6105ZM110.376 95.5828C109.624 95.5828 108.976 95.4221 108.433 95.1006C107.892 94.7758 107.475 94.32 107.18 93.7334C106.888 93.1434 106.742 92.4524 106.742 91.6602C106.742 90.878 106.888 90.1887 107.18 89.5921C107.475 88.9955 107.886 88.5298 108.413 88.195C108.943 87.8603 109.563 87.6929 110.272 87.6929C110.703 87.6929 111.121 87.7642 111.525 87.9067C111.929 88.0492 112.292 88.2729 112.614 88.5779C112.935 88.8828 113.189 89.2789 113.374 89.7661C113.56 90.25 113.653 90.8383 113.653 91.531V92.058H107.582V90.9443H112.196C112.196 90.5532 112.116 90.2069 111.957 89.9053C111.798 89.6003 111.575 89.3601 111.286 89.1844C111.001 89.0087 110.666 88.9209 110.282 88.9209C109.864 88.9209 109.5 89.0236 109.188 89.2291C108.88 89.4313 108.641 89.6965 108.472 90.0246C108.307 90.3494 108.224 90.7024 108.224 91.0835V91.9536C108.224 92.464 108.313 92.8982 108.492 93.2561C108.674 93.6141 108.928 93.8875 109.253 94.0764C109.578 94.262 109.957 94.3548 110.391 94.3548C110.673 94.3548 110.93 94.3151 111.162 94.2355C111.394 94.1527 111.594 94.03 111.763 93.8676C111.933 93.7052 112.062 93.5047 112.151 93.2661L113.558 93.5196C113.446 93.9339 113.243 94.2968 112.952 94.6084C112.663 94.9166 112.3 95.1569 111.863 95.3293C111.429 95.4983 110.933 95.5828 110.376 95.5828ZM118.867 87.7923V88.9855H114.695V87.7923H118.867ZM115.814 85.9628H117.301V93.1865C117.301 93.4749 117.344 93.692 117.43 93.8378C117.516 93.9803 117.627 94.0781 117.763 94.1311C117.902 94.1808 118.053 94.2057 118.215 94.2057C118.335 94.2057 118.439 94.1974 118.529 94.1808C118.618 94.1643 118.688 94.151 118.737 94.1411L119.006 95.3691C118.92 95.4022 118.797 95.4353 118.638 95.4685C118.479 95.5049 118.28 95.5248 118.041 95.5281C117.65 95.5348 117.286 95.4652 116.948 95.3193C116.61 95.1735 116.336 94.9481 116.127 94.6432C115.919 94.3383 115.814 93.9555 115.814 93.4948V85.9628ZM122.167 95.4287L119.919 87.7923H121.456L122.952 93.4003H123.027L124.528 87.7923H126.064L127.556 93.3754H127.63L129.117 87.7923H130.653L128.411 95.4287H126.895L125.343 89.9152H125.229L123.678 95.4287H122.167ZM135.123 95.5828C134.37 95.5828 133.722 95.4221 133.179 95.1006C132.638 94.7758 132.221 94.32 131.926 93.7334C131.634 93.1434 131.488 92.4524 131.488 91.6602C131.488 90.878 131.634 90.1887 131.926 89.5921C132.221 88.9955 132.632 88.5298 133.159 88.195C133.689 87.8603 134.309 87.6929 135.018 87.6929C135.449 87.6929 135.867 87.7642 136.271 87.9067C136.675 88.0492 137.038 88.2729 137.36 88.5779C137.681 88.8828 137.935 89.2789 138.12 89.7661C138.306 90.25 138.399 90.8383 138.399 91.531V92.058H132.328V90.9443H136.942C136.942 90.5532 136.863 90.2069 136.703 89.9053C136.544 89.6003 136.321 89.3601 136.032 89.1844C135.747 89.0087 135.413 88.9209 135.028 88.9209C134.61 88.9209 134.246 89.0236 133.934 89.2291C133.626 89.4313 133.387 89.6965 133.218 90.0246C133.053 90.3494 132.97 90.7024 132.97 91.0835V91.9536C132.97 92.464 133.059 92.8982 133.238 93.2561C133.421 93.6141 133.674 93.8875 133.999 94.0764C134.324 94.262 134.703 94.3548 135.137 94.3548C135.419 94.3548 135.676 94.3151 135.908 94.2355C136.14 94.1527 136.341 94.03 136.51 93.8676C136.679 93.7052 136.808 93.5047 136.897 93.2661L138.304 93.5196C138.192 93.9339 137.989 94.2968 137.698 94.6084C137.409 94.9166 137.047 95.1569 136.609 95.3293C136.175 95.4983 135.679 95.5828 135.123 95.5828ZM143.339 95.5828C142.587 95.5828 141.939 95.4221 141.395 95.1006C140.855 94.7758 140.438 94.32 140.143 93.7334C139.851 93.1434 139.705 92.4524 139.705 91.6602C139.705 90.878 139.851 90.1887 140.143 89.5921C140.438 88.9955 140.849 88.5298 141.376 88.195C141.906 87.8603 142.526 87.6929 143.235 87.6929C143.666 87.6929 144.083 87.7642 144.488 87.9067C144.892 88.0492 145.255 88.2729 145.577 88.5779C145.898 88.8828 146.152 89.2789 146.337 89.7661C146.523 90.25 146.616 90.8383 146.616 91.531V92.058H140.545V90.9443H145.159C145.159 90.5532 145.079 90.2069 144.92 89.9053C144.761 89.6003 144.537 89.3601 144.249 89.1844C143.964 89.0087 143.629 88.9209 143.245 88.9209C142.827 88.9209 142.463 89.0236 142.151 89.2291C141.843 89.4313 141.604 89.6965 141.435 90.0246C141.269 90.3494 141.187 90.7024 141.187 91.0835V91.9536C141.187 92.464 141.276 92.8982 141.455 93.2561C141.637 93.6141 141.891 93.8875 142.216 94.0764C142.541 94.262 142.92 94.3548 143.354 94.3548C143.636 94.3548 143.893 94.3151 144.125 94.2355C144.357 94.1527 144.557 94.03 144.726 93.8676C144.895 93.7052 145.025 93.5047 145.114 93.2661L146.521 93.5196C146.408 93.9339 146.206 94.2968 145.915 94.6084C145.626 94.9166 145.263 95.1569 144.826 95.3293C144.392 95.4983 143.896 95.5828 143.339 95.5828ZM149.751 90.8946V95.4287H148.265V87.7923H149.692V89.0352H149.786C149.962 88.6309 150.237 88.3061 150.612 88.0608C150.989 87.8155 151.465 87.6929 152.038 87.6929C152.559 87.6929 153.014 87.8023 153.406 88.021C153.797 88.2365 154.1 88.558 154.315 88.9855C154.531 89.4131 154.638 89.9417 154.638 90.5715V95.4287H153.152V90.7504C153.152 90.1969 153.008 89.7644 152.719 89.4529C152.431 89.138 152.035 88.9806 151.531 88.9806C151.187 88.9806 150.88 89.0551 150.612 89.2043C150.346 89.3534 150.136 89.5722 149.98 89.8605C149.828 90.1456 149.751 90.4903 149.751 90.8946ZM161.824 90.8946V95.4287H160.337V87.7923H161.764V89.0352H161.858C162.034 88.6309 162.309 88.3061 162.684 88.0608C163.062 87.8155 163.537 87.6929 164.111 87.6929C164.631 87.6929 165.087 87.8023 165.478 88.021C165.869 88.2365 166.172 88.558 166.388 88.9855C166.603 89.4131 166.711 89.9417 166.711 90.5715V95.4287H165.224V90.7504C165.224 90.1969 165.08 89.7644 164.792 89.4529C164.503 89.138 164.107 88.9806 163.604 88.9806C163.259 88.9806 162.952 89.0551 162.684 89.2043C162.419 89.3534 162.208 89.5722 162.052 89.8605C161.9 90.1456 161.824 90.4903 161.824 90.8946ZM171.996 95.5828C171.243 95.5828 170.595 95.4221 170.052 95.1006C169.511 94.7758 169.094 94.32 168.799 93.7334C168.507 93.1434 168.361 92.4524 168.361 91.6602C168.361 90.878 168.507 90.1887 168.799 89.5921C169.094 88.9955 169.505 88.5298 170.032 88.195C170.562 87.8603 171.182 87.6929 171.891 87.6929C172.322 87.6929 172.74 87.7642 173.144 87.9067C173.548 88.0492 173.911 88.2729 174.233 88.5779C174.554 88.8828 174.808 89.2789 174.993 89.7661C175.179 90.25 175.272 90.8383 175.272 91.531V92.058H169.202V90.9443H173.815C173.815 90.5532 173.736 90.2069 173.577 89.9053C173.417 89.6003 173.194 89.3601 172.905 89.1844C172.62 89.0087 172.286 88.9209 171.901 88.9209C171.483 88.9209 171.119 89.0236 170.807 89.2291C170.499 89.4313 170.26 89.6965 170.091 90.0246C169.926 90.3494 169.843 90.7024 169.843 91.0835V91.9536C169.843 92.464 169.932 92.8982 170.111 93.2561C170.294 93.6141 170.547 93.8875 170.872 94.0764C171.197 94.262 171.576 94.3548 172.01 94.3548C172.292 94.3548 172.549 94.3151 172.781 94.2355C173.013 94.1527 173.214 94.03 173.383 93.8676C173.552 93.7052 173.681 93.5047 173.77 93.2661L175.177 93.5196C175.065 93.9339 174.863 94.2968 174.571 94.6084C174.282 94.9166 173.92 95.1569 173.482 95.3293C173.048 95.4983 172.552 95.5828 171.996 95.5828ZM180.486 87.7923V88.9855H176.315V87.7923H180.486ZM177.433 85.9628H178.92V93.1865C178.92 93.4749 178.963 93.692 179.049 93.8378C179.135 93.9803 179.246 94.0781 179.382 94.1311C179.521 94.1808 179.672 94.2057 179.835 94.2057C179.954 94.2057 180.058 94.1974 180.148 94.1808C180.237 94.1643 180.307 94.151 180.357 94.1411L180.625 95.3691C180.539 95.4022 180.416 95.4353 180.257 95.4685C180.098 95.5049 179.899 95.5248 179.661 95.5281C179.269 95.5348 178.905 95.4652 178.567 95.3193C178.229 95.1735 177.955 94.9481 177.746 94.6432C177.538 94.3383 177.433 93.9555 177.433 93.4948V85.9628ZM183.786 95.4287L181.539 87.7923H183.075L184.571 93.4003H184.646L186.147 87.7923H187.683L189.175 93.3754H189.249L190.736 87.7923H192.272L190.03 95.4287H188.514L186.963 89.9152H186.848L185.297 95.4287H183.786ZM196.667 95.5828C195.951 95.5828 195.326 95.4188 194.793 95.0906C194.259 94.7625 193.845 94.3035 193.55 93.7135C193.255 93.1235 193.107 92.4342 193.107 91.6453C193.107 90.8532 193.255 90.1605 193.55 89.5672C193.845 88.9739 194.259 88.5132 194.793 88.1851C195.326 87.857 195.951 87.6929 196.667 87.6929C197.383 87.6929 198.008 87.857 198.541 88.1851C199.075 88.5132 199.489 88.9739 199.784 89.5672C200.079 90.1605 200.227 90.8532 200.227 91.6453C200.227 92.4342 200.079 93.1235 199.784 93.7135C199.489 94.3035 199.075 94.7625 198.541 95.0906C198.008 95.4188 197.383 95.5828 196.667 95.5828ZM196.672 94.335C197.136 94.335 197.521 94.2123 197.825 93.9671C198.13 93.7218 198.356 93.3953 198.502 92.9877C198.651 92.58 198.725 92.1309 198.725 91.6404C198.725 91.1531 198.651 90.7057 198.502 90.298C198.356 89.887 198.13 89.5573 197.825 89.3087C197.521 89.0601 197.136 88.9358 196.672 88.9358C196.205 88.9358 195.817 89.0601 195.509 89.3087C195.204 89.5573 194.977 89.887 194.828 90.298C194.682 90.7057 194.609 91.1531 194.609 91.6404C194.609 92.1309 194.682 92.58 194.828 92.9877C194.977 93.3953 195.204 93.7218 195.509 93.9671C195.817 94.2123 196.205 94.335 196.672 94.335ZM201.886 95.4287V87.7923H203.323V89.0054H203.402C203.542 88.5944 203.787 88.2713 204.138 88.036C204.493 87.7973 204.894 87.678 205.341 87.678C205.434 87.678 205.543 87.6813 205.669 87.6879C205.799 87.6946 205.9 87.7029 205.973 87.7128V89.1347C205.913 89.1181 205.807 89.0999 205.654 89.08C205.502 89.0568 205.35 89.0452 205.197 89.0452C204.846 89.0452 204.533 89.1198 204.257 89.2689C203.986 89.4147 203.77 89.6186 203.611 89.8804C203.452 90.1389 203.373 90.4339 203.373 90.7654V95.4287H201.886ZM208.626 92.8385L208.616 91.0239H208.875L211.917 87.7923H213.697L210.227 91.4713H209.993L208.626 92.8385ZM207.259 95.4287V85.2469H208.746V95.4287H207.259ZM212.081 95.4287L209.347 91.7994L210.371 90.7604L213.906 95.4287H212.081Z" fill="white"/>
<g filter="url(#filter1_b_236_16793)">
<rect x="52" y="116.429" width="168" height="40" rx="8" fill="#29282A"/>
<g clip-path="url(#clip0_236_16793)">
<path d="M70 140.929L76 136.429L70 131.929V140.929ZM72 126.429C66.48 126.429 62 130.909 62 136.429C62 141.949 66.48 146.429 72 146.429C77.52 146.429 82 141.949 82 136.429C82 130.909 77.52 126.429 72 126.429ZM72 144.429C67.59 144.429 64 140.839 64 136.429C64 132.019 67.59 128.429 72 128.429C76.41 128.429 80 132.019 80 136.429C80 140.839 76.41 144.429 72 144.429Z" fill="white"/>
</g>
<path d="M91.1437 141.429V131.247H95.1608C95.9297 131.247 96.586 131.384 97.1295 131.66C97.6764 131.931 98.0924 132.317 98.3774 132.818C98.6657 133.315 98.8099 133.9 98.8099 134.573C98.8099 135.249 98.6641 135.831 98.3724 136.318C98.0808 136.802 97.6582 137.173 97.1047 137.432C96.5545 137.69 95.8883 137.819 95.1061 137.819H92.4165V136.089H94.7581C95.1691 136.089 95.5104 136.033 95.7822 135.92C96.054 135.807 96.2562 135.638 96.3888 135.413C96.5247 135.188 96.5926 134.908 96.5926 134.573C96.5926 134.235 96.5247 133.95 96.3888 133.718C96.2562 133.486 96.0523 133.31 95.7773 133.191C95.5055 133.068 95.1624 133.007 94.7481 133.007H93.2964V141.429H91.1437ZM96.6423 136.795L99.1729 141.429H96.7964L94.3206 136.795H96.6423ZM103.649 141.578C102.863 141.578 102.187 141.419 101.62 141.101C101.057 140.779 100.622 140.325 100.318 139.738C100.013 139.148 99.8602 138.451 99.8602 137.645C99.8602 136.86 100.013 136.17 100.318 135.577C100.622 134.984 101.052 134.522 101.605 134.19C102.162 133.859 102.815 133.693 103.564 133.693C104.068 133.693 104.537 133.774 104.971 133.937C105.408 134.096 105.79 134.336 106.114 134.657C106.443 134.979 106.698 135.383 106.88 135.87C107.062 136.354 107.153 136.921 107.153 137.571V138.152H100.705V136.84H105.16C105.16 136.535 105.094 136.265 104.961 136.03C104.828 135.794 104.645 135.61 104.409 135.478C104.177 135.342 103.907 135.274 103.599 135.274C103.277 135.274 102.992 135.348 102.744 135.498C102.498 135.643 102.306 135.841 102.167 136.089C102.028 136.334 101.957 136.608 101.953 136.91V138.157C101.953 138.535 102.023 138.862 102.162 139.137C102.305 139.412 102.505 139.624 102.764 139.773C103.022 139.922 103.329 139.997 103.683 139.997C103.919 139.997 104.134 139.964 104.33 139.897C104.525 139.831 104.693 139.732 104.832 139.599C104.971 139.467 105.077 139.304 105.15 139.112L107.109 139.241C107.009 139.712 106.805 140.123 106.497 140.474C106.192 140.822 105.798 141.094 105.314 141.29C104.833 141.482 104.278 141.578 103.649 141.578ZM108.536 144.292V133.792H110.624V135.075H110.718C110.811 134.87 110.945 134.661 111.121 134.449C111.3 134.233 111.532 134.054 111.817 133.912C112.105 133.766 112.463 133.693 112.891 133.693C113.448 133.693 113.961 133.839 114.432 134.13C114.903 134.419 115.279 134.855 115.56 135.438C115.842 136.018 115.983 136.745 115.983 137.62C115.983 138.472 115.845 139.191 115.57 139.778C115.299 140.361 114.927 140.804 114.457 141.106C113.989 141.404 113.466 141.553 112.886 141.553C112.475 141.553 112.125 141.485 111.837 141.349C111.552 141.213 111.318 141.043 111.136 140.837C110.953 140.628 110.814 140.418 110.718 140.206H110.653V144.292H108.536ZM110.609 137.611C110.609 138.065 110.672 138.461 110.798 138.799C110.924 139.137 111.106 139.4 111.345 139.589C111.583 139.775 111.873 139.868 112.215 139.868C112.559 139.868 112.851 139.773 113.09 139.584C113.328 139.392 113.509 139.127 113.631 138.789C113.757 138.447 113.82 138.055 113.82 137.611C113.82 137.17 113.759 136.782 113.636 136.447C113.514 136.112 113.333 135.851 113.095 135.662C112.856 135.473 112.563 135.378 112.215 135.378C111.87 135.378 111.578 135.469 111.34 135.652C111.104 135.834 110.924 136.093 110.798 136.427C110.672 136.762 110.609 137.156 110.609 137.611ZM119.513 131.247V141.429H117.395V131.247H119.513ZM123.387 141.573C122.9 141.573 122.466 141.488 122.084 141.319C121.703 141.147 121.402 140.893 121.18 140.559C120.961 140.221 120.851 139.8 120.851 139.296C120.851 138.872 120.929 138.515 121.085 138.227C121.241 137.939 121.453 137.707 121.722 137.531C121.99 137.355 122.295 137.223 122.636 137.133C122.981 137.044 123.342 136.981 123.72 136.944C124.164 136.898 124.522 136.855 124.794 136.815C125.066 136.772 125.263 136.709 125.386 136.626C125.508 136.543 125.57 136.421 125.57 136.258V136.228C125.57 135.914 125.47 135.67 125.271 135.498C125.076 135.325 124.797 135.239 124.436 135.239C124.055 135.239 123.752 135.324 123.526 135.493C123.301 135.658 123.152 135.867 123.079 136.119L121.12 135.96C121.219 135.496 121.415 135.095 121.707 134.757C121.998 134.415 122.374 134.154 122.835 133.971C123.299 133.786 123.836 133.693 124.446 133.693C124.87 133.693 125.276 133.743 125.664 133.842C126.055 133.941 126.401 134.096 126.703 134.304C127.008 134.513 127.248 134.782 127.424 135.11C127.6 135.435 127.687 135.824 127.687 136.278V141.429H125.679V140.37H125.619C125.497 140.608 125.333 140.819 125.127 141.001C124.922 141.18 124.675 141.321 124.386 141.424C124.098 141.523 123.765 141.573 123.387 141.573ZM123.994 140.111C124.305 140.111 124.58 140.05 124.819 139.927C125.057 139.801 125.245 139.632 125.381 139.42C125.516 139.208 125.584 138.968 125.584 138.699V137.889C125.518 137.932 125.427 137.972 125.311 138.008C125.198 138.041 125.071 138.073 124.928 138.103C124.786 138.129 124.643 138.154 124.501 138.177C124.358 138.197 124.229 138.215 124.113 138.232C123.864 138.268 123.647 138.326 123.462 138.406C123.276 138.486 123.132 138.593 123.029 138.729C122.926 138.862 122.875 139.027 122.875 139.226C122.875 139.515 122.979 139.735 123.188 139.888C123.4 140.037 123.669 140.111 123.994 140.111ZM130.365 144.292C130.096 144.292 129.844 144.271 129.609 144.228C129.377 144.188 129.185 144.137 129.032 144.074L129.509 142.493C129.758 142.569 129.982 142.61 130.181 142.617C130.383 142.624 130.557 142.577 130.703 142.478C130.852 142.378 130.973 142.209 131.066 141.971L131.19 141.647L128.451 133.792H130.678L132.259 139.4H132.338L133.934 133.792H136.176L133.208 142.254C133.066 142.665 132.872 143.023 132.627 143.328C132.385 143.636 132.078 143.873 131.707 144.039C131.336 144.208 130.888 144.292 130.365 144.292ZM142.678 141.573C142.191 141.573 141.757 141.488 141.375 141.319C140.994 141.147 140.693 140.893 140.471 140.559C140.252 140.221 140.142 139.8 140.142 139.296C140.142 138.872 140.22 138.515 140.376 138.227C140.532 137.939 140.744 137.707 141.013 137.531C141.281 137.355 141.586 137.223 141.927 137.133C142.272 137.044 142.633 136.981 143.011 136.944C143.455 136.898 143.813 136.855 144.085 136.815C144.357 136.772 144.554 136.709 144.677 136.626C144.799 136.543 144.861 136.421 144.861 136.258V136.228C144.861 135.914 144.761 135.67 144.562 135.498C144.367 135.325 144.088 135.239 143.727 135.239C143.346 135.239 143.043 135.324 142.817 135.493C142.592 135.658 142.443 135.867 142.37 136.119L140.411 135.96C140.51 135.496 140.706 135.095 140.998 134.757C141.289 134.415 141.665 134.154 142.126 133.971C142.59 133.786 143.127 133.693 143.737 133.693C144.161 133.693 144.567 133.743 144.955 133.842C145.346 133.941 145.692 134.096 145.994 134.304C146.299 134.513 146.539 134.782 146.715 135.11C146.891 135.435 146.978 135.824 146.978 136.278V141.429H144.97V140.37H144.91C144.788 140.608 144.624 140.819 144.418 141.001C144.213 141.18 143.966 141.321 143.677 141.424C143.389 141.523 143.056 141.573 142.678 141.573ZM143.285 140.111C143.596 140.111 143.871 140.05 144.11 139.927C144.348 139.801 144.536 139.632 144.672 139.42C144.807 139.208 144.875 138.968 144.875 138.699V137.889C144.809 137.932 144.718 137.972 144.602 138.008C144.489 138.041 144.362 138.073 144.219 138.103C144.077 138.129 143.934 138.154 143.792 138.177C143.649 138.197 143.52 138.215 143.404 138.232C143.155 138.268 142.938 138.326 142.753 138.406C142.567 138.486 142.423 138.593 142.32 138.729C142.217 138.862 142.166 139.027 142.166 139.226C142.166 139.515 142.27 139.735 142.479 139.888C142.691 140.037 142.96 140.111 143.285 140.111ZM150.739 137.014V141.429H148.622V133.792H150.64V135.14H150.729C150.899 134.696 151.182 134.344 151.58 134.086C151.977 133.824 152.46 133.693 153.026 133.693C153.557 133.693 154.019 133.809 154.413 134.041C154.808 134.273 155.114 134.604 155.333 135.035C155.552 135.463 155.661 135.973 155.661 136.566V141.429H153.543V136.944C153.547 136.477 153.427 136.112 153.185 135.851C152.944 135.585 152.61 135.453 152.186 135.453C151.901 135.453 151.649 135.514 151.43 135.637C151.215 135.759 151.046 135.938 150.923 136.174C150.804 136.406 150.743 136.686 150.739 137.014ZM157.331 141.429V133.792H159.448V141.429H157.331ZM158.394 132.808C158.08 132.808 157.809 132.704 157.584 132.495C157.362 132.283 157.251 132.029 157.251 131.734C157.251 131.442 157.362 131.192 157.584 130.983C157.809 130.771 158.08 130.665 158.394 130.665C158.709 130.665 158.978 130.771 159.2 130.983C159.425 131.192 159.538 131.442 159.538 131.734C159.538 132.029 159.425 132.283 159.2 132.495C158.978 132.704 158.709 132.808 158.394 132.808ZM161.145 141.429V133.792H163.163V135.14H163.253C163.412 134.692 163.677 134.339 164.048 134.081C164.42 133.822 164.864 133.693 165.381 133.693C165.904 133.693 166.35 133.824 166.718 134.086C167.086 134.344 167.331 134.696 167.454 135.14H167.533C167.689 134.702 167.971 134.352 168.379 134.091C168.79 133.825 169.275 133.693 169.835 133.693C170.548 133.693 171.126 133.92 171.57 134.374C172.018 134.825 172.242 135.464 172.242 136.293V141.429H170.129V136.711C170.129 136.286 170.016 135.968 169.791 135.756C169.565 135.544 169.283 135.438 168.945 135.438C168.561 135.438 168.261 135.561 168.046 135.806C167.83 136.048 167.722 136.368 167.722 136.765V141.429H165.669V136.666C165.669 136.291 165.561 135.993 165.346 135.771C165.134 135.549 164.854 135.438 164.506 135.438C164.27 135.438 164.058 135.498 163.869 135.617C163.684 135.733 163.536 135.897 163.427 136.109C163.318 136.318 163.263 136.563 163.263 136.845V141.429H161.145ZM176.092 141.573C175.605 141.573 175.171 141.488 174.79 141.319C174.408 141.147 174.107 140.893 173.885 140.559C173.666 140.221 173.557 139.8 173.557 139.296C173.557 138.872 173.634 138.515 173.79 138.227C173.946 137.939 174.158 137.707 174.427 137.531C174.695 137.355 175 137.223 175.341 137.133C175.686 137.044 176.047 136.981 176.425 136.944C176.869 136.898 177.227 136.855 177.499 136.815C177.771 136.772 177.968 136.709 178.091 136.626C178.213 136.543 178.275 136.421 178.275 136.258V136.228C178.275 135.914 178.175 135.67 177.976 135.498C177.781 135.325 177.502 135.239 177.141 135.239C176.76 135.239 176.457 135.324 176.231 135.493C176.006 135.658 175.857 135.867 175.784 136.119L173.825 135.96C173.924 135.496 174.12 135.095 174.412 134.757C174.703 134.415 175.08 134.154 175.54 133.971C176.004 133.786 176.541 133.693 177.151 133.693C177.575 133.693 177.981 133.743 178.369 133.842C178.76 133.941 179.107 134.096 179.408 134.304C179.713 134.513 179.953 134.782 180.129 135.11C180.305 135.435 180.392 135.824 180.392 136.278V141.429H178.384V140.37H178.324C178.202 140.608 178.038 140.819 177.832 141.001C177.627 141.18 177.38 141.321 177.091 141.424C176.803 141.523 176.47 141.573 176.092 141.573ZM176.699 140.111C177.01 140.111 177.285 140.05 177.524 139.927C177.763 139.801 177.95 139.632 178.086 139.42C178.222 139.208 178.29 138.968 178.29 138.699V137.889C178.223 137.932 178.132 137.972 178.016 138.008C177.903 138.041 177.776 138.073 177.633 138.103C177.491 138.129 177.348 138.154 177.206 138.177C177.063 138.197 176.934 138.215 176.818 138.232C176.569 138.268 176.352 138.326 176.167 138.406C175.981 138.486 175.837 138.593 175.734 138.729C175.631 138.862 175.58 139.027 175.58 139.226C175.58 139.515 175.684 139.735 175.893 139.888C176.105 140.037 176.374 140.111 176.699 140.111ZM186.097 133.792V135.383H181.499V133.792H186.097ZM182.543 131.963H184.661V139.082C184.661 139.278 184.69 139.43 184.75 139.54C184.81 139.646 184.893 139.72 184.999 139.763C185.108 139.806 185.234 139.828 185.377 139.828C185.476 139.828 185.575 139.82 185.675 139.803C185.774 139.783 185.85 139.768 185.903 139.758L186.237 141.334C186.131 141.367 185.981 141.406 185.789 141.449C185.597 141.495 185.363 141.523 185.088 141.533C184.578 141.553 184.13 141.485 183.746 141.329C183.365 141.174 183.068 140.932 182.856 140.603C182.644 140.275 182.539 139.861 182.543 139.361V131.963ZM187.477 141.429V133.792H189.595V141.429H187.477ZM188.541 132.808C188.226 132.808 187.956 132.704 187.731 132.495C187.508 132.283 187.397 132.029 187.397 131.734C187.397 131.442 187.508 131.192 187.731 130.983C187.956 130.771 188.226 130.665 188.541 130.665C188.856 130.665 189.124 130.771 189.346 130.983C189.572 131.192 189.684 131.442 189.684 131.734C189.684 132.029 189.572 132.283 189.346 132.495C189.124 132.704 188.856 132.808 188.541 132.808ZM194.742 141.578C193.969 141.578 193.302 141.414 192.738 141.086C192.178 140.754 191.746 140.294 191.441 139.704C191.136 139.11 190.983 138.423 190.983 137.64C190.983 136.852 191.136 136.162 191.441 135.572C191.746 134.979 192.178 134.518 192.738 134.19C193.302 133.859 193.969 133.693 194.742 133.693C195.514 133.693 196.18 133.859 196.74 134.19C197.304 134.518 197.738 134.979 198.043 135.572C198.348 136.162 198.5 136.852 198.5 137.64C198.5 138.423 198.348 139.11 198.043 139.704C197.738 140.294 197.304 140.754 196.74 141.086C196.18 141.414 195.514 141.578 194.742 141.578ZM194.752 139.937C195.103 139.937 195.396 139.838 195.632 139.639C195.867 139.437 196.044 139.162 196.164 138.814C196.286 138.466 196.348 138.07 196.348 137.625C196.348 137.181 196.286 136.785 196.164 136.437C196.044 136.089 195.867 135.814 195.632 135.612C195.396 135.41 195.103 135.309 194.752 135.309C194.397 135.309 194.099 135.41 193.857 135.612C193.618 135.814 193.438 136.089 193.315 136.437C193.196 136.785 193.136 137.181 193.136 137.625C193.136 138.07 193.196 138.466 193.315 138.814C193.438 139.162 193.618 139.437 193.857 139.639C194.099 139.838 194.397 139.937 194.752 139.937ZM201.995 137.014V141.429H199.877V133.792H201.896V135.14H201.985C202.154 134.696 202.438 134.344 202.835 134.086C203.233 133.824 203.715 133.693 204.282 133.693C204.813 133.693 205.275 133.809 205.669 134.041C206.064 134.273 206.37 134.604 206.589 135.035C206.808 135.463 206.917 135.973 206.917 136.566V141.429H204.799V136.944C204.803 136.477 204.683 136.112 204.441 135.851C204.199 135.585 203.866 135.453 203.442 135.453C203.157 135.453 202.905 135.514 202.686 135.637C202.471 135.759 202.302 135.938 202.179 136.174C202.06 136.406 201.999 136.686 201.995 137.014Z" fill="white"/>
</g>
</g>
<path d="M126.994 11.5702C130.993 6.62325 132.992 4.14981 135.626 3.98515C135.875 3.96955 136.125 3.96955 136.374 3.98515C139.008 4.14981 141.007 6.62325 145.006 11.5702C151.352 19.4225 154.526 23.3487 153.285 26.5796C153.172 26.8743 153.036 27.1595 152.878 27.4328C151.145 30.4287 146.097 30.4287 136 30.4287C125.903 30.4287 120.855 30.4287 119.122 27.4328C118.964 27.1595 118.828 26.8743 118.715 26.5796C117.474 23.3487 120.648 19.4225 126.994 11.5702Z" fill="#217EFF"/>
<defs>
<filter id="filter0_b_236_16793" x="-27.1828" y="-10.7541" width="326.366" height="210.366" filterUnits="userSpaceOnUse" color-interpolation-filters="sRGB">
<feFlood flood-opacity="0" result="BackgroundImageFix"/>
<feGaussianBlur in="BackgroundImageFix" stdDeviation="13.5914"/>
<feComposite in2="SourceAlpha" operator="in" result="effect1_backgroundBlur_236_16793"/>
<feBlend mode="normal" in="SourceGraphic" in2="effect1_backgroundBlur_236_16793" result="shape"/>
</filter>
<filter id="filter1_b_236_16793" x="24.8172" y="89.2459" width="222.366" height="94.3656" filterUnits="userSpaceOnUse" color-interpolation-filters="sRGB">
<feFlood flood-opacity="0" result="BackgroundImageFix"/>
<feGaussianBlur in="BackgroundImageFix" stdDeviation="13.5914"/>
<feComposite in2="SourceAlpha" operator="in" result="effect1_backgroundBlur_236_16793"/>
<feBlend mode="normal" in="SourceGraphic" in2="effect1_backgroundBlur_236_16793" result="shape"/>
</filter>
<clipPath id="clip0_236_16793">
<rect width="24" height="24" fill="white" transform="translate(60 124.429)"/>
</clipPath>
</defs>
</svg>
