<svg width="48" height="48" viewBox="0 0 48 48" fill="none" xmlns="http://www.w3.org/2000/svg">
    <path d="M18 5V2H30V5H18ZM22.5 27.35H25.5V15.85H22.5V27.35ZM24 43.95C21.5333 43.95 19.2083 43.475 17.025 42.525C14.8417 41.575 12.9333 40.2833 11.3 38.65C9.66667 37.0167 8.375 35.1083 7.425 32.925C6.475 30.7417 6 28.4167 6 25.95C6 23.4833 6.475 21.1583 7.425 18.975C8.375 16.7917 9.66667 14.8833 11.3 13.25C12.9333 11.6167 14.8417 10.325 17.025 9.375C19.2083 8.425 21.5333 7.95 24 7.95C26.2333 7.95 28.3333 8.325 30.3 9.075C32.2667 9.825 34.0167 10.8667 35.55 12.2L38.1 9.65L40.2 11.75L37.65 14.3C38.85 15.6333 39.875 17.25 40.725 19.15C41.575 21.05 42 23.3167 42 25.95C42 28.4167 41.525 30.7417 40.575 32.925C39.625 35.1083 38.3333 37.0167 36.7 38.65C35.0667 40.2833 33.1583 41.575 30.975 42.525C28.7917 43.475 26.4667 43.95 24 43.95ZM24 40.95C28.1667 40.95 31.7083 39.4917 34.625 36.575C37.5417 33.6583 39 30.1167 39 25.95C39 21.7833 37.5417 18.2417 34.625 15.325C31.7083 12.4083 28.1667 10.95 24 10.95C19.8333 10.95 16.2917 12.4083 13.375 15.325C10.4583 18.2417 9 21.7833 9 25.95C9 30.1167 10.4583 33.6583 13.375 36.575C16.2917 39.4917 19.8333 40.95 24 40.95Z"
          fill="#02C076"/>
</svg>
