<svg width="48" height="48" viewBox="0 0 48 48" fill="none" xmlns="http://www.w3.org/2000/svg">
<path d="M30 40C25.5333 40 21.75 38.45 18.65 35.35C15.55 32.25 14 28.4667 14 24C14 19.5333 15.55 15.75 18.65 12.65C21.75 9.55 25.5333 8 30 8C34.4667 8 38.25 9.55 41.35 12.65C44.45 15.75 46 19.5333 46 24C46 28.4667 44.45 32.25 41.35 35.35C38.25 38.45 34.4667 40 30 40ZM14.7 39.4C10.9333 38.9333 7.875 37.2083 5.525 34.225C3.175 31.2417 2 27.8333 2 24C2 20.1667 3.175 16.7583 5.525 13.775C7.875 10.7917 10.9333 9.06667 14.7 8.6V11.5C11.7667 12.0333 9.41667 13.4917 7.65 15.875C5.88333 18.2583 5 20.9667 5 24C5 27.0333 5.88333 29.7417 7.65 32.125C9.41667 34.5083 11.7667 35.9667 14.7 36.5V39.4ZM30 37C33.5667 37 36.625 35.725 39.175 33.175C41.725 30.625 43 27.5667 43 24C43 20.4333 41.725 17.375 39.175 14.825C36.625 12.275 33.5667 11 30 11C26.4333 11 23.375 12.275 20.825 14.825C18.275 17.375 17 20.4333 17 24C17 27.5667 18.275 30.625 20.825 33.175C23.375 35.725 26.4333 37 30 37Z" fill="#02C076"/>
</svg>
