<svg width="56" height="56" viewBox="0 0 56 56" fill="none" xmlns="http://www.w3.org/2000/svg">
<path d="M11.4335 36.6921C10.6557 35.2921 10.1113 33.8824 9.80016 32.463C9.48905 31.0435 9.3335 29.5949 9.3335 28.1171C9.3335 23.0227 11.171 18.638 14.846 14.963C18.521 11.288 22.9057 9.45046 28.0002 9.45046H30.5085L25.8418 4.78379L28.1168 2.50879L36.8085 11.2005L28.1168 19.8921L25.7835 17.5588L30.3918 12.9505H28.0002C23.8391 12.9505 20.271 14.438 17.296 17.413C14.321 20.388 12.8335 23.956 12.8335 28.1171C12.8335 29.2449 12.9404 30.3143 13.1543 31.3255C13.3682 32.3366 13.6307 33.2893 13.9418 34.1838L11.4335 36.6921ZM27.7668 53.6671L19.0752 44.9755L27.7668 36.2838L30.0418 38.5588L25.3752 43.2255H28.0002C32.1613 43.2255 35.7293 41.738 38.7043 38.763C41.6793 35.788 43.1668 32.2199 43.1668 28.0588C43.1668 26.931 43.0696 25.8616 42.8752 24.8505C42.6807 23.8393 42.389 22.8866 42.0002 21.9921L44.5085 19.4838C45.2863 20.8838 45.8404 22.2935 46.171 23.713C46.5016 25.1324 46.6668 26.581 46.6668 28.0588C46.6668 33.1532 44.8293 37.538 41.1543 41.213C37.4793 44.888 33.0946 46.7255 28.0002 46.7255H25.3752L30.0418 51.3921L27.7668 53.6671Z" fill="#29282A"/>
</svg>
