<svg width="56" height="56" viewBox="0 0 56 56" fill="none" xmlns="http://www.w3.org/2000/svg">
<path d="M30.7417 51.3334V47.8334C32.1028 47.6001 33.4445 47.2209 34.7667 46.6959C36.0889 46.1709 37.3723 45.4417 38.6167 44.5084L41.125 47.0751C39.5695 48.2417 37.9167 49.1751 36.1667 49.8751C34.4167 50.5751 32.6084 51.0612 30.7417 51.3334ZM25.4917 51.3334C20.1639 50.5167 15.7695 48.1445 12.3084 44.2167C8.84725 40.289 7.1167 35.6028 7.1167 30.1584C7.1167 27.2417 7.66114 24.5098 8.75003 21.9626C9.83892 19.4153 11.3361 17.189 13.2417 15.2834C15.1473 13.3778 17.3736 11.8806 19.9209 10.7917C22.4681 9.70284 25.2 9.1584 28.1167 9.1584H29.2834L24.675 4.55007L27.2417 1.9834L36.1667 10.9084L27.2417 19.8334L24.675 17.2667L29.2834 12.6584H28.1167C23.1778 12.6584 19.0264 14.3403 15.6625 17.7042C12.2986 21.0681 10.6167 25.2195 10.6167 30.1584C10.6167 34.7084 12.0264 38.5876 14.8459 41.7959C17.6653 45.0042 21.2139 47.0167 25.4917 47.8334V51.3334ZM44.8 43.4001L42.2334 40.8334C43.1278 39.6667 43.8375 38.4028 44.3625 37.0417C44.8875 35.6806 45.2473 34.2612 45.4417 32.7834H49C48.7278 34.7667 48.232 36.6626 47.5125 38.4709C46.7931 40.2792 45.8889 41.9223 44.8 43.4001ZM49 27.5334H45.4417C45.2473 26.1723 44.8875 24.8112 44.3625 23.4501C43.8375 22.089 43.1278 20.7667 42.2334 19.4834L44.8 16.9751C45.9278 18.5306 46.8417 20.1931 47.5417 21.9626C48.2417 23.732 48.7278 25.589 49 27.5334Z" fill="#29282A"/>
</svg>
