<svg width="190" height="56" viewBox="0 0 190 56" fill="none" xmlns="http://www.w3.org/2000/svg">
<path d="M182.963 1.12C184.531 1.12 186.034 1.7395 187.143 2.84221C188.251 3.94493 188.874 5.44053 188.874 7V49C188.874 50.5595 188.251 52.0551 187.143 53.1578C186.034 54.2605 184.531 54.88 182.963 54.88H7.03704C5.46931 54.88 3.9658 54.2605 2.85725 53.1578C1.7487 52.0551 1.12593 50.5595 1.12593 49V7C1.12593 5.44053 1.7487 3.94493 2.85725 2.84221C3.9658 1.7395 5.46931 1.12 7.03704 1.12H182.963ZM182.963 0H7.03704C5.1707 0 3.3808 0.737498 2.0611 2.05025C0.7414 3.36301 0 5.14348 0 7V49C0 50.8565 0.7414 52.637 2.0611 53.9497C3.3808 55.2625 5.1707 56 7.03704 56H182.963C184.829 56 186.619 55.2625 187.939 53.9497C189.259 52.637 190 50.8565 190 49V7C190 5.14348 189.259 3.36301 187.939 2.05025C186.619 0.737498 184.829 0 182.963 0Z" fill="white"/>
<path d="M66.7387 14.3353C66.7619 14.8487 66.6802 15.3615 66.4988 15.8427C66.3174 16.3239 66.04 16.7636 65.6832 17.1353C65.2834 17.5459 64.8009 17.8679 64.2673 18.0802C63.7337 18.2925 63.1611 18.3904 62.5869 18.3673C62.0094 18.3801 61.4354 18.2749 60.9004 18.0582C60.3654 17.8414 59.8807 17.5178 59.4765 17.1073C58.6564 16.2729 58.1973 15.1523 58.1973 13.9853C58.1973 12.8184 58.6564 11.6978 59.4765 10.8633C60.1035 10.2539 60.8976 9.84235 61.759 9.68044C62.6204 9.51853 63.5107 9.61347 64.318 9.95332C64.8255 10.1608 65.2782 10.4818 65.641 10.8913L64.895 11.6333C64.6156 11.2984 64.2614 11.0329 63.8607 10.8579C63.4601 10.683 63.0239 10.6033 62.5869 10.6253C62.0352 10.6291 61.4929 10.7673 61.0073 11.0277C60.5217 11.2881 60.1076 11.6629 59.8012 12.1193C59.4948 12.5757 59.3055 13.0998 59.2498 13.6457C59.194 14.1917 59.2736 14.7429 59.4814 15.2513C59.6893 15.7596 60.0192 16.2096 60.4422 16.5618C60.8653 16.914 61.3686 17.1578 61.9083 17.2719C62.4479 17.3859 63.0074 17.3668 63.5379 17.216C64.0684 17.0653 64.5537 16.7877 64.9513 16.4073C65.3812 15.9385 65.6305 15.3334 65.655 14.6993H62.5869V13.6913H66.6825C66.7145 13.9046 66.7333 14.1197 66.7387 14.3353Z" fill="white" stroke="white" stroke-width="0.2" stroke-miterlimit="10"/>
<path d="M73.1849 10.8387H69.3849V13.4987H72.8471V14.5067H69.3849V17.1667H73.1849V18.2027H68.2871V9.80273H73.1849V10.8387Z" fill="white" stroke="white" stroke-width="0.2" stroke-miterlimit="10"/>
<path d="M77.8017 18.2027H76.718V10.8387H74.3535V9.80273H80.2224V10.8387H77.8017V18.2027Z" fill="white" stroke="white" stroke-width="0.2" stroke-miterlimit="10"/>
<path d="M84.3594 18.2027V9.80273H85.4431V18.2027H84.3594Z" fill="white" stroke="white" stroke-width="0.2" stroke-miterlimit="10"/>
<path d="M90.2548 18.2027H89.1711V10.8387H86.8066V9.80273H92.6052V10.8387H90.2548V18.2027Z" fill="white" stroke="white" stroke-width="0.2" stroke-miterlimit="10"/>
<path d="M103.601 17.1066C103.195 17.5113 102.712 17.8324 102.181 18.0514C101.649 18.2704 101.08 18.3832 100.505 18.3832C99.9298 18.3832 99.3603 18.2704 98.829 18.0514C98.2977 17.8324 97.815 17.5113 97.4086 17.1066C96.6129 16.2653 96.1699 15.1537 96.1699 13.9986C96.1699 12.8435 96.6129 11.732 97.4086 10.8906C97.8063 10.4746 98.2874 10.1462 98.8208 9.92671C99.3541 9.70725 99.9279 9.60162 100.505 9.61664C101.081 9.60757 101.653 9.71593 102.185 9.93503C102.718 10.1541 103.2 10.4793 103.601 10.8906C104.006 11.3001 104.324 11.7861 104.537 12.3199C104.749 12.8538 104.852 13.4246 104.84 13.9986C104.858 14.5734 104.758 15.1459 104.545 15.6805C104.332 16.2151 104.011 16.7005 103.601 17.1066ZM98.2108 16.4066C98.5106 16.7089 98.8678 16.9488 99.2616 17.1126C99.6554 17.2764 100.078 17.3608 100.505 17.3608C100.932 17.3608 101.354 17.2764 101.748 17.1126C102.142 16.9488 102.499 16.7089 102.799 16.4066C103.406 15.7502 103.743 14.8907 103.743 13.9986C103.743 13.1066 103.406 12.2471 102.799 11.5906C102.499 11.2884 102.142 11.0484 101.748 10.8846C101.354 10.7209 100.932 10.6365 100.505 10.6365C100.078 10.6365 99.6554 10.7209 99.2616 10.8846C98.8678 11.0484 98.5106 11.2884 98.2108 11.5906C97.6035 12.2471 97.2664 13.1066 97.2664 13.9986C97.2664 14.8907 97.6035 15.7502 98.2108 16.4066Z" fill="white" stroke="white" stroke-width="0.2" stroke-miterlimit="10"/>
<path d="M106.373 18.2027V9.80273H107.682L111.792 16.3407V14.7167V9.80273H112.875V18.2027H111.749L107.457 11.3567V12.9667V18.2027H106.373Z" fill="white" stroke="white" stroke-width="0.2" stroke-miterlimit="10"/>
<path d="M95.8993 30.4483C94.7135 30.4511 93.5551 30.8036 92.5707 31.4612C91.5863 32.1189 90.82 33.0521 90.3688 34.1429C89.9176 35.2338 89.8017 36.4332 90.0358 37.5896C90.2699 38.7459 90.8434 39.8073 91.6838 40.6394C92.5243 41.4715 93.5939 42.037 94.7575 42.2644C95.9211 42.4918 97.1263 42.3709 98.2208 41.917C99.3152 41.463 100.25 40.6964 100.906 39.7141C101.563 38.7318 101.912 37.5779 101.909 36.3983C101.92 35.6114 101.773 34.8303 101.474 34.1014C101.176 33.3725 100.733 32.7108 100.173 32.1556C99.6118 31.6005 98.9445 31.1632 98.2104 30.8699C97.4762 30.5766 96.6903 30.4332 95.8993 30.4483ZM95.8993 40.0103C95.1725 40.0609 94.4472 39.8928 93.8177 39.5279C93.1882 39.163 92.6836 38.6181 92.3695 37.9641C92.0555 37.3102 91.9464 36.5774 92.0566 35.8609C92.1668 35.1445 92.4911 34.4776 92.9873 33.947C93.4836 33.4163 94.1288 33.0464 94.8392 32.8854C95.5496 32.7244 96.2922 32.7797 96.9706 33.044C97.649 33.3084 98.2317 33.7697 98.643 34.3679C99.0544 34.9661 99.2753 35.6736 99.2771 36.3983C99.2997 36.8576 99.2297 37.3166 99.0712 37.7485C98.9127 38.1804 98.6688 38.5763 98.354 38.913C98.0392 39.2496 97.6598 39.5202 97.2382 39.7086C96.8166 39.8971 96.3614 39.9997 95.8993 40.0103ZM82.7823 30.4483C81.5964 30.4511 80.4381 30.8036 79.4537 31.4612C78.4693 32.1189 77.703 33.0521 77.2518 34.1429C76.8006 35.2338 76.6847 36.4332 76.9188 37.5896C77.1528 38.7459 77.7263 39.8073 78.5668 40.6394C79.4073 41.4715 80.4769 42.037 81.6405 42.2644C82.804 42.4918 84.0093 42.3709 85.1037 41.917C86.1982 41.463 87.1328 40.6964 87.7893 39.7141C88.4458 38.7318 88.7947 37.5779 88.7919 36.3983C88.8034 35.6114 88.6555 34.8303 88.3572 34.1014C88.0589 33.3725 87.6162 32.7108 87.0555 32.1556C86.4948 31.6005 85.8275 31.1632 85.0933 30.8699C84.3592 30.5766 83.5732 30.4332 82.7823 30.4483ZM82.7823 40.0103C82.0554 40.0609 81.3301 39.8928 80.7006 39.5279C80.0712 39.163 79.5666 38.6181 79.2525 37.9641C78.9384 37.3102 78.8294 36.5774 78.9396 35.8609C79.0497 35.1445 79.374 34.4776 79.8703 33.947C80.3665 33.4163 81.0118 33.0464 81.7222 32.8854C82.4325 32.7244 83.1752 32.7797 83.8535 33.044C84.5319 33.3084 85.1147 33.7697 85.526 34.3679C85.9373 34.9661 86.1583 35.6736 86.16 36.3983C86.1827 36.8576 86.1127 37.3166 85.9542 37.7485C85.7956 38.1804 85.5518 38.5763 85.237 38.913C84.9222 39.2496 84.5428 39.5202 84.1212 39.7086C83.6996 39.8971 83.2443 39.9997 82.7823 40.0103ZM67.1882 32.2823V34.8023H73.2682C73.1728 35.9893 72.6769 37.1092 71.8608 37.9803C71.2509 38.5985 70.5173 39.0823 69.7076 39.4007C68.8979 39.719 68.0299 39.8647 67.16 39.8283C65.3683 39.8283 63.65 39.1203 62.3831 37.8601C61.1162 36.5998 60.4045 34.8906 60.4045 33.1083C60.4045 31.3261 61.1162 29.6168 62.3831 28.3566C63.65 27.0963 65.3683 26.3883 67.16 26.3883C68.8777 26.3629 70.5363 27.0118 71.7763 28.1943L73.5637 26.4163C72.7249 25.591 71.7289 24.9406 70.6342 24.5031C69.5394 24.0655 68.3679 23.8497 67.1882 23.8683C65.937 23.8199 64.6888 24.0232 63.5185 24.4661C62.3482 24.909 61.2798 25.5823 60.3774 26.4457C59.4749 27.3092 58.757 28.345 58.2666 29.491C57.7762 30.6371 57.5234 31.8698 57.5234 33.1153C57.5234 34.3609 57.7762 35.5936 58.2666 36.7397C58.757 37.8857 59.4749 38.9215 60.3774 39.7849C61.2798 40.6484 62.3482 41.3217 63.5185 41.7646C64.6888 42.2075 65.937 42.4108 67.1882 42.3623C68.3921 42.4102 69.5926 42.2041 70.7108 41.7578C71.829 41.3114 72.8396 40.6348 73.6763 39.7723C75.1543 38.1573 75.9418 36.0332 75.8719 33.8503C75.8769 33.3249 75.8345 32.8002 75.7452 32.2823H67.1882ZM130.958 34.2423C130.591 33.1682 129.904 32.2302 128.99 31.5527C128.075 30.8752 126.975 30.4901 125.835 30.4483C125.065 30.4468 124.303 30.6024 123.596 30.9055C122.889 31.2085 122.252 31.6526 121.724 32.2103C121.197 32.7679 120.79 33.4273 120.528 34.1477C120.267 34.868 120.157 35.634 120.205 36.3983C120.193 37.6763 120.597 38.9239 121.357 39.9547C122.116 40.9855 123.191 41.7442 124.419 42.1175C125.648 42.4908 126.965 42.4587 128.174 42.0259C129.383 41.5931 130.419 40.7829 131.127 39.7163L129.086 38.3163C128.782 38.8207 128.35 39.2372 127.834 39.5246C127.318 39.8119 126.736 39.96 126.144 39.9543C125.534 39.9794 124.931 39.8203 124.414 39.498C123.896 39.1757 123.489 38.7052 123.245 38.1483L131.253 34.8583L130.958 34.2423ZM122.795 36.2303C122.766 35.7955 122.825 35.3593 122.968 34.9474C123.111 34.5355 123.336 34.1561 123.628 33.8315C123.92 33.5068 124.275 33.2435 124.67 33.0568C125.066 32.8701 125.496 32.7639 125.933 32.7443C126.387 32.7168 126.838 32.823 127.231 33.0496C127.625 33.2763 127.942 33.6132 128.143 34.0183L122.795 36.2303ZM116.293 41.9983H118.924V24.4983H116.293V41.9983ZM111.986 31.7783H111.887C111.494 31.3329 111.009 30.9773 110.465 30.7356C109.921 30.494 109.331 30.3721 108.735 30.3783C107.197 30.4525 105.746 31.1125 104.684 32.2215C103.622 33.3306 103.03 34.8036 103.03 36.3353C103.03 37.8671 103.622 39.3401 104.684 40.4491C105.746 41.5581 107.197 42.2181 108.735 42.2923C109.332 42.3042 109.924 42.1849 110.468 41.9429C111.013 41.7009 111.498 41.3422 111.887 40.8923H111.986V41.7463C111.986 44.0283 110.762 45.2463 108.791 45.2463C108.133 45.232 107.494 45.0233 106.955 44.6469C106.416 44.2705 106.002 43.7433 105.765 43.1323L103.485 44.0703C103.907 45.1235 104.64 46.0246 105.587 46.6545C106.534 47.2845 107.652 47.6136 108.791 47.5983C111.873 47.5983 114.421 45.7923 114.421 41.3963V30.7983H111.986V31.7783ZM108.96 40.0103C108.038 39.9531 107.172 39.5484 106.54 38.8787C105.907 38.2089 105.555 37.3244 105.555 36.4053C105.555 35.4863 105.907 34.6018 106.54 33.932C107.172 33.2622 108.038 32.8575 108.96 32.8003C109.411 32.8197 109.853 32.929 110.26 33.1218C110.668 33.3146 111.032 33.587 111.331 33.9227C111.631 34.2584 111.859 34.6505 112.003 35.0758C112.147 35.5011 112.203 35.9509 112.169 36.3983C112.207 36.8473 112.154 37.2994 112.012 37.7271C111.869 38.1549 111.641 38.5496 111.341 38.8872C111.041 39.2249 110.676 39.4985 110.266 39.6915C109.857 39.8846 109.413 39.993 108.96 40.0103ZM143.287 24.4983H136.982V41.9983H139.613V35.3623H143.287C144.037 35.4159 144.79 35.3153 145.499 35.0666C146.208 34.8179 146.859 34.4265 147.409 33.9168C147.959 33.4072 148.399 32.7902 148.699 32.1043C148.999 31.4184 149.154 30.6784 149.154 29.9303C149.154 29.1823 148.999 28.4422 148.699 27.7564C148.399 27.0705 147.959 26.4535 147.409 25.9438C146.859 25.4342 146.208 25.0428 145.499 24.7941C144.79 24.5454 144.037 24.4447 143.287 24.4983ZM143.287 32.8983H139.613V26.9343H143.343C143.739 26.9343 144.13 27.0118 144.496 27.1624C144.861 27.3129 145.193 27.5336 145.473 27.8118C145.752 28.09 145.974 28.4203 146.126 28.7838C146.277 29.1473 146.355 29.5369 146.355 29.9303C146.355 30.3238 146.277 30.7134 146.126 31.0769C145.974 31.4403 145.752 31.7706 145.473 32.0488C145.193 32.327 144.861 32.5477 144.496 32.6983C144.13 32.8488 143.739 32.9263 143.343 32.9263L143.287 32.8983ZM159.528 30.3923C158.57 30.3335 157.615 30.5555 156.782 31.0308C155.949 31.506 155.274 32.2137 154.842 33.0663L157.164 34.0323C157.398 33.6115 157.751 33.2672 158.178 33.0412C158.605 32.8151 159.088 32.7169 159.57 32.7583C159.904 32.7195 160.243 32.7473 160.566 32.84C160.889 32.9327 161.191 33.0885 161.453 33.2983C161.715 33.5081 161.932 33.7678 162.092 34.062C162.252 34.3563 162.352 34.6794 162.385 35.0123V35.1803C161.539 34.7378 160.597 34.5072 159.641 34.5083C157.136 34.5083 154.574 35.9083 154.574 38.4563C154.599 38.9979 154.733 39.529 154.968 40.0181C155.203 40.5072 155.535 40.9443 155.943 41.3034C156.351 41.6625 156.828 41.9364 157.345 42.1086C157.861 42.2809 158.408 42.3482 158.951 42.3063C159.612 42.3427 160.27 42.2036 160.858 41.9035C161.447 41.6034 161.945 41.1529 162.301 40.5983H162.385V41.9983H164.919V35.2643C164.919 32.1983 162.582 30.4203 159.584 30.4203L159.528 30.3923ZM159.204 39.9823C158.346 39.9823 157.15 39.5483 157.15 38.4983C157.15 37.0983 158.642 36.6223 159.964 36.6223C160.801 36.6018 161.627 36.8049 162.357 37.2103C162.269 37.9706 161.906 38.6733 161.337 39.1881C160.768 39.703 160.03 39.9951 159.261 40.0103L159.204 39.9823ZM174.151 30.7983L171.139 38.3863H171.055L167.93 30.7983H165.116L169.802 41.4103L167.128 47.3043H169.873L177.079 30.7983H174.151ZM150.507 41.9983H153.124V24.4983H150.507V41.9983Z" fill="white"/>
<path d="M14.6949 10.5589C14.2311 11.1044 13.9945 11.8056 14.0334 12.5189V43.4869C13.9855 44.2015 14.2232 44.9059 14.6949 45.4469L14.7934 45.5589L32.2312 28.2129V27.7929L14.7934 10.4609L14.6949 10.5589Z" fill="url(#paint0_linear_1506_2219)"/>
<path d="M38.0008 33.9938L32.2305 28.2118V27.7918L38.0008 22.0098L38.1275 22.0938L45.0379 25.9858C47.0082 27.0918 47.0082 28.9118 45.0379 30.0318L38.1557 33.9238L38.0008 33.9938Z" fill="url(#paint1_linear_1506_2219)"/>
<path d="M38.1709 33.908L32.2316 28L14.6953 45.444C15.093 45.7961 15.6021 45.9987 16.1342 46.0166C16.6663 46.0345 17.1879 45.8666 17.6086 45.542L38.1709 33.908Z" fill="url(#paint2_linear_1506_2219)"/>
<path d="M38.1709 22.0891L17.6086 10.4691C17.1907 10.14 16.6694 9.96801 16.1366 9.98337C15.6038 9.99873 15.0934 10.2005 14.6953 10.5531L32.2316 27.9971L38.1709 22.0891Z" fill="url(#paint3_linear_1506_2219)"/>
<path opacity="0.2" d="M38.002 33.7832L17.6086 45.3332C17.2032 45.6376 16.7092 45.8022 16.2012 45.8022C15.6933 45.8022 15.1992 45.6376 14.7938 45.3332L14.6953 45.4312L14.7938 45.5432C15.1992 45.8476 15.6933 46.0122 16.2012 46.0122C16.7092 46.0122 17.2032 45.8476 17.6086 45.5432L38.1709 33.9092L38.002 33.7832Z" fill="black"/>
<path opacity="0.12" d="M14.6937 45.2494C14.2417 44.6941 14.0201 43.9879 14.0745 43.2754V43.4854C14.0266 44.1999 14.2643 44.9044 14.736 45.4454L14.8345 45.3474L14.6937 45.2494Z" fill="black"/>
<path opacity="0.12" d="M45.037 29.82L38 33.782L38.1267 33.908L45.037 30.016C45.4449 29.8444 45.7988 29.5666 46.0613 29.2118C46.3239 28.8571 46.4854 28.4384 46.5289 28C46.4409 28.3984 46.2601 28.7707 46.0009 29.0868C45.7418 29.4029 45.4116 29.6541 45.037 29.82Z" fill="black"/>
<path opacity="0.25" d="M17.61 10.6666L45.0403 26.1786C45.4149 26.3445 45.7451 26.5957 46.0042 26.9118C46.2634 27.2279 46.4442 27.6002 46.5322 27.9986C46.4887 27.5602 46.3272 27.1415 46.0647 26.7868C45.8021 26.432 45.4483 26.1542 45.0403 25.9826L17.61 10.4706C15.6537 9.3506 14.0352 10.2746 14.0352 12.5146V12.7246C14.0774 10.4846 15.6537 9.5606 17.61 10.6666Z" fill="white"/>
<defs>
<linearGradient id="paint0_linear_1506_2219" x1="30.683" y1="12.1969" x2="7.19136" y2="35.8129" gradientUnits="userSpaceOnUse">
<stop stop-color="#00A0FF"/>
<stop offset="0.01" stop-color="#00A1FF"/>
<stop offset="0.26" stop-color="#00BEFF"/>
<stop offset="0.51" stop-color="#00D2FF"/>
<stop offset="0.76" stop-color="#00DFFF"/>
<stop offset="1" stop-color="#00E3FF"/>
</linearGradient>
<linearGradient id="paint1_linear_1506_2219" x1="47.6134" y1="28.0018" x2="13.5683" y2="28.0018" gradientUnits="userSpaceOnUse">
<stop stop-color="#FFE000"/>
<stop offset="0.41" stop-color="#FFBD00"/>
<stop offset="0.78" stop-color="#FFA500"/>
<stop offset="1" stop-color="#FF9C00"/>
</linearGradient>
<linearGradient id="paint2_linear_1506_2219" x1="34.9479" y1="31.22" x2="3.08426" y2="63.2381" gradientUnits="userSpaceOnUse">
<stop stop-color="#FF3A44"/>
<stop offset="1" stop-color="#C31162"/>
</linearGradient>
<linearGradient id="paint3_linear_1506_2219" x1="10.2761" y1="0.249125" x2="24.4999" y2="14.5482" gradientUnits="userSpaceOnUse">
<stop stop-color="#32A071"/>
<stop offset="0.07" stop-color="#2DA771"/>
<stop offset="0.48" stop-color="#15CF74"/>
<stop offset="0.8" stop-color="#06E775"/>
<stop offset="1" stop-color="#00F076"/>
</linearGradient>
</defs>
</svg>
