<svg width="216" height="64" viewBox="0 0 216 64" fill="none" xmlns="http://www.w3.org/2000/svg">
<path d="M208 1.28C209.782 1.28 211.492 1.988 212.752 3.24824C214.012 4.50849 214.72 6.21775 214.72 8V56C214.72 57.7823 214.012 59.4915 212.752 60.7518C211.492 62.012 209.782 62.72 208 62.72H8C6.21775 62.72 4.50849 62.012 3.24824 60.7518C1.988 59.4915 1.28 57.7823 1.28 56V8C1.28 6.21775 1.988 4.50849 3.24824 3.24824C4.50849 1.988 6.21775 1.28 8 1.28H208ZM208 0H8C5.87827 0 3.84344 0.842855 2.34315 2.34315C0.842855 3.84344 0 5.87827 0 8V56C0 58.1217 0.842855 60.1566 2.34315 61.6569C3.84344 63.1571 5.87827 64 8 64H208C210.122 64 212.157 63.1571 213.657 61.6569C215.157 60.1566 216 58.1217 216 56V8C216 5.87827 215.157 3.84344 213.657 2.34315C212.157 0.842855 210.122 0 208 0Z" fill="#A6A6A6"/>
<path d="M75.8724 16.3824C75.8987 16.9691 75.8059 17.5552 75.5997 18.1051C75.3935 18.6551 75.078 19.1576 74.6724 19.5824C74.2179 20.0517 73.6694 20.4197 73.0628 20.6623C72.4562 20.9049 71.8052 21.0167 71.1524 20.9904C70.4959 21.005 69.8433 20.8848 69.2351 20.6371C68.6269 20.3894 68.076 20.0195 67.6164 19.5504C66.6841 18.5967 66.1621 17.316 66.1621 15.9824C66.1621 14.6487 66.6841 13.368 67.6164 12.4144C68.3292 11.7179 69.232 11.2476 70.2112 11.0625C71.1905 10.8775 72.2026 10.986 73.1204 11.3744C73.6974 11.6116 74.212 11.9784 74.6244 12.4464L73.7764 13.2944C73.4587 12.9116 73.0561 12.6082 72.6006 12.4082C72.1451 12.2083 71.6493 12.1172 71.1524 12.1424C70.5253 12.1467 69.9087 12.3046 69.3567 12.6022C68.8046 12.8999 68.3339 13.3282 67.9856 13.8498C67.6373 14.3714 67.422 14.9703 67.3586 15.5943C67.2953 16.2182 67.3857 16.8482 67.622 17.4292C67.8583 18.0101 68.2334 18.5244 68.7143 18.9269C69.1952 19.3295 69.7675 19.6081 70.3809 19.7384C70.9944 19.8688 71.6305 19.8469 72.2336 19.6746C72.8366 19.5024 73.3883 19.1851 73.8404 18.7504C74.3292 18.2145 74.6125 17.5231 74.6404 16.7984H71.1524V15.6464H75.8084C75.8449 15.8902 75.8662 16.136 75.8724 16.3824Z" fill="white" stroke="white" stroke-width="0.2" stroke-miterlimit="10"/>
<path d="M83.1998 12.3852H78.8798V15.4252H82.8158V16.5772H78.8798V19.6172H83.1998V20.8012H77.6318V11.2012H83.1998V12.3852Z" fill="white" stroke="white" stroke-width="0.2" stroke-miterlimit="10"/>
<path d="M88.4493 20.8012H87.2173V12.3852H84.5293V11.2012H91.2013V12.3852H88.4493V20.8012Z" fill="white" stroke="white" stroke-width="0.2" stroke-miterlimit="10"/>
<path d="M95.9043 20.8012V11.2012H97.1363V20.8012H95.9043Z" fill="white" stroke="white" stroke-width="0.2" stroke-miterlimit="10"/>
<path d="M102.608 20.8012H101.376V12.3852H98.6885V11.2012H105.28V12.3852H102.608V20.8012Z" fill="white" stroke="white" stroke-width="0.2" stroke-miterlimit="10"/>
<path d="M117.776 19.5499C117.314 20.0124 116.765 20.3793 116.161 20.6296C115.557 20.8799 114.91 21.0088 114.256 21.0088C113.602 21.0088 112.955 20.8799 112.351 20.6296C111.747 20.3793 111.198 20.0124 110.736 19.5499C109.832 18.5884 109.328 17.318 109.328 15.9979C109.328 14.6778 109.832 13.4074 110.736 12.4459C111.188 11.9704 111.735 11.5951 112.342 11.3443C112.948 11.0934 113.6 10.9727 114.256 10.9899C114.911 10.9795 115.562 11.1034 116.167 11.3538C116.772 11.6042 117.32 11.9758 117.776 12.4459C118.236 12.9139 118.598 13.4693 118.84 14.0794C119.082 14.6894 119.199 15.3418 119.184 15.9979C119.205 16.6548 119.091 17.309 118.849 17.92C118.607 18.531 118.242 19.0858 117.776 19.5499ZM111.648 18.7499C111.989 19.0953 112.395 19.3696 112.843 19.5567C113.291 19.7439 113.771 19.8403 114.256 19.8403C114.742 19.8403 115.222 19.7439 115.67 19.5567C116.117 19.3696 116.523 19.0953 116.864 18.7499C117.555 17.9997 117.938 17.0174 117.938 15.9979C117.938 14.9784 117.555 13.9961 116.864 13.2459C116.523 12.9005 116.117 12.6262 115.67 12.439C115.222 12.2518 114.742 12.1555 114.256 12.1555C113.771 12.1555 113.291 12.2518 112.843 12.439C112.395 12.6262 111.989 12.9005 111.648 13.2459C110.958 13.9961 110.575 14.9784 110.575 15.9979C110.575 17.0174 110.958 17.9997 111.648 18.7499Z" fill="white" stroke="white" stroke-width="0.2" stroke-miterlimit="10"/>
<path d="M120.929 20.8012V11.2012H122.417L127.089 18.6732V16.8172V11.2012H128.321V20.8012H127.041L122.161 12.9772V14.8172V20.8012H120.929Z" fill="white" stroke="white" stroke-width="0.2" stroke-miterlimit="10"/>
<path d="M109.024 34.7995C107.676 34.8027 106.359 35.2055 105.24 35.9571C104.121 36.7087 103.249 37.7752 102.737 39.0219C102.224 40.2686 102.092 41.6393 102.358 42.9609C102.624 44.2824 103.276 45.4954 104.231 46.4464C105.187 47.3974 106.403 48.0437 107.726 48.3036C109.049 48.5635 110.419 48.4253 111.663 47.9065C112.907 47.3877 113.97 46.5116 114.716 45.3889C115.462 44.2663 115.859 42.9476 115.856 41.5995C115.869 40.7002 115.701 39.8075 115.362 38.9744C115.023 38.1414 114.519 37.3852 113.882 36.7507C113.244 36.1162 112.486 35.6165 111.651 35.2813C110.817 34.9461 109.923 34.7822 109.024 34.7995ZM109.024 45.7275C108.198 45.7853 107.373 45.5932 106.657 45.1761C105.942 44.7591 105.368 44.1364 105.011 43.389C104.654 42.6416 104.53 41.8041 104.655 40.9853C104.781 40.1666 105.149 39.4044 105.713 38.798C106.277 38.1915 107.011 37.7688 107.819 37.5847C108.626 37.4007 109.47 37.4639 110.242 37.766C111.013 38.0682 111.675 38.5954 112.143 39.279C112.611 39.9627 112.862 40.7712 112.864 41.5995C112.89 42.1243 112.81 42.649 112.63 43.1426C112.45 43.6361 112.172 44.0886 111.814 44.4734C111.457 44.8581 111.025 45.1673 110.546 45.3827C110.067 45.5981 109.549 45.7153 109.024 45.7275ZM94.1118 34.7995C92.7637 34.8027 91.4468 35.2055 90.3277 35.9571C89.2086 36.7087 88.3375 37.7752 87.8245 39.0219C87.3116 40.2686 87.1798 41.6393 87.4459 42.9609C87.712 44.2824 88.364 45.4954 89.3195 46.4464C90.2749 47.3974 91.491 48.0437 92.8137 48.3036C94.1365 48.5635 95.5067 48.4253 96.7509 47.9065C97.9952 47.3877 99.0576 46.5116 99.804 45.3889C100.55 44.2663 100.947 42.9476 100.944 41.5995C100.957 40.7002 100.789 39.8075 100.45 38.9744C100.111 38.1414 99.6072 37.3852 98.9698 36.7507C98.3323 36.1162 97.5737 35.6165 96.7391 35.2813C95.9045 34.9461 95.011 34.7822 94.1118 34.7995ZM94.1118 45.7275C93.2855 45.7853 92.461 45.5932 91.7453 45.1761C91.0297 44.7591 90.4561 44.1364 90.099 43.389C89.742 42.6416 89.618 41.8041 89.7433 40.9853C89.8685 40.1666 90.2372 39.4044 90.8013 38.798C91.3655 38.1915 92.099 37.7688 92.9066 37.5847C93.7142 37.4007 94.5585 37.4639 95.3297 37.766C96.1009 38.0682 96.7634 38.5954 97.231 39.279C97.6986 39.9627 97.9498 40.7712 97.9518 41.5995C97.9775 42.1243 97.898 42.649 97.7177 43.1426C97.5375 43.6361 97.2603 44.0886 96.9024 44.4734C96.5445 44.8581 96.1132 45.1673 95.6339 45.3827C95.1546 45.5981 94.6371 45.7153 94.1118 45.7275ZM76.3838 36.8955V39.7755H83.2958C83.1874 41.132 82.6235 42.412 81.6958 43.4075C81.0024 44.1139 80.1685 44.6669 79.2479 45.0307C78.3274 45.3945 77.3407 45.561 76.3518 45.5195C74.3149 45.5195 72.3615 44.7104 70.9212 43.2701C69.4809 41.8298 68.6718 39.8764 68.6718 37.8395C68.6718 35.8026 69.4809 33.8492 70.9212 32.4089C72.3615 30.9686 74.3149 30.1595 76.3518 30.1595C78.3045 30.1304 80.19 30.872 81.5998 32.2235L83.6318 30.1915C82.6781 29.2483 81.5459 28.5049 80.3013 28.0049C79.0567 27.5049 77.7249 27.2582 76.3838 27.2795C74.9614 27.2241 73.5424 27.4565 72.212 27.9626C70.8815 28.4688 69.6669 29.2383 68.641 30.2251C67.615 31.2119 66.7989 32.3956 66.2414 33.7054C65.6839 35.0152 65.3965 36.424 65.3965 37.8475C65.3965 39.271 65.6839 40.6798 66.2414 41.9896C66.7989 43.2993 67.615 44.4831 68.641 45.4699C69.6669 46.4567 70.8815 47.2262 72.212 47.7323C73.5424 48.2385 74.9614 48.4708 76.3838 48.4155C77.7524 48.4702 79.1172 48.2347 80.3884 47.7245C81.6596 47.2144 82.8086 46.4411 83.7598 45.4555C85.44 43.6097 86.3352 41.1822 86.2558 38.6875C86.2615 38.0871 86.2133 37.4873 86.1118 36.8955H76.3838ZM148.88 39.1355C148.463 37.9079 147.682 36.8359 146.642 36.0616C145.602 35.2873 144.352 34.8472 143.056 34.7995C142.181 34.7978 141.314 34.9756 140.511 35.3219C139.707 35.6683 138.983 36.1758 138.383 36.8131C137.783 37.4505 137.32 38.204 137.023 39.0273C136.726 39.8506 136.601 40.726 136.656 41.5995C136.642 43.0601 137.101 44.4858 137.965 45.6639C138.828 46.842 140.05 47.7091 141.447 48.1357C142.844 48.5624 144.341 48.5256 145.715 48.031C147.09 47.5364 148.267 46.6105 149.072 45.3915L146.752 43.7915C146.406 44.3679 145.915 44.844 145.329 45.1723C144.742 45.5007 144.08 45.67 143.408 45.6635C142.714 45.6921 142.028 45.5103 141.44 45.1419C140.852 44.7736 140.389 44.2359 140.112 43.5995L149.216 39.8395L148.88 39.1355ZM139.6 41.4075C139.567 40.9105 139.634 40.412 139.797 39.9413C139.96 39.4705 140.215 39.0369 140.547 38.6659C140.879 38.2949 141.282 37.9939 141.732 37.7806C142.182 37.5672 142.67 37.4458 143.168 37.4235C143.683 37.392 144.197 37.5134 144.644 37.7724C145.09 38.0314 145.451 38.4165 145.68 38.8795L139.6 41.4075ZM132.208 47.9995H135.2V27.9995H132.208V47.9995ZM127.312 36.3195H127.2C126.753 35.8105 126.201 35.404 125.583 35.1278C124.964 34.8517 124.293 34.7124 123.616 34.7195C121.867 34.8043 120.218 35.5586 119.011 36.826C117.803 38.0935 117.13 39.7769 117.13 41.5275C117.13 43.2781 117.803 44.9615 119.011 46.229C120.218 47.4964 121.867 48.2507 123.616 48.3355C124.294 48.3491 124.967 48.2127 125.587 47.9362C126.206 47.6596 126.757 47.2496 127.2 46.7355H127.312V47.7115C127.312 50.3195 125.92 51.7115 123.68 51.7115C122.932 51.6951 122.205 51.4566 121.592 51.0264C120.98 50.5963 120.509 49.9938 120.24 49.2955L117.648 50.3675C118.127 51.5711 118.96 52.6009 120.037 53.3208C121.114 54.0408 122.384 54.4169 123.68 54.3995C127.184 54.3995 130.08 52.3355 130.08 47.3115V35.1995H127.312V36.3195ZM123.872 45.7275C122.823 45.6621 121.839 45.1996 121.12 44.4342C120.401 43.6687 120.001 42.6578 120.001 41.6075C120.001 40.5571 120.401 39.5463 121.12 38.7808C121.839 38.0154 122.823 37.5528 123.872 37.4875C124.384 37.5096 124.887 37.6346 125.35 37.8549C125.813 38.0753 126.227 38.3865 126.567 38.7702C126.908 39.1538 127.168 39.602 127.331 40.0881C127.495 40.5741 127.559 41.0881 127.52 41.5995C127.563 42.1126 127.503 42.6292 127.341 43.1181C127.179 43.607 126.92 44.0581 126.579 44.4439C126.238 44.8298 125.822 45.1425 125.357 45.3631C124.892 45.5838 124.386 45.7077 123.872 45.7275ZM162.896 27.9995H155.728V47.9995H158.72V40.4155H162.896C163.749 40.4767 164.605 40.3617 165.411 40.0775C166.217 39.7932 166.956 39.3459 167.582 38.7635C168.208 38.181 168.707 37.4759 169.048 36.692C169.39 35.9082 169.566 35.0624 169.566 34.2075C169.566 33.3526 169.39 32.5068 169.048 31.723C168.707 30.9391 168.208 30.234 167.582 29.6515C166.956 29.069 166.217 28.6218 165.411 28.3375C164.605 28.0533 163.749 27.9382 162.896 27.9995ZM162.896 37.5995H158.72V30.7835H162.96C163.409 30.7835 163.855 30.872 164.27 31.0441C164.686 31.2162 165.063 31.4684 165.381 31.7864C165.699 32.1043 165.951 32.4818 166.123 32.8972C166.295 33.3126 166.384 33.7578 166.384 34.2075C166.384 34.6571 166.295 35.1024 166.123 35.5178C165.951 35.9332 165.699 36.3107 165.381 36.6286C165.063 36.9466 164.686 37.1988 164.27 37.3709C163.855 37.5429 163.409 37.6315 162.96 37.6315L162.896 37.5995ZM181.36 34.7355C180.27 34.6683 179.185 34.922 178.238 35.4651C177.291 36.0083 176.524 36.8171 176.032 37.7915L178.672 38.8955C178.939 38.4145 179.339 38.0211 179.824 37.7627C180.31 37.5044 180.86 37.3921 181.408 37.4395C181.788 37.3951 182.172 37.4269 182.54 37.5328C182.907 37.6388 183.25 37.8168 183.548 38.0566C183.846 38.2964 184.093 38.5931 184.275 38.9294C184.457 39.2658 184.57 39.635 184.608 40.0155V40.2075C183.646 39.7018 182.575 39.4382 181.488 39.4395C178.64 39.4395 175.728 41.0395 175.728 43.9515C175.756 44.5704 175.908 45.1774 176.176 45.7364C176.443 46.2953 176.82 46.7948 177.284 47.2053C177.748 47.6157 178.29 47.9287 178.878 48.1256C179.465 48.3225 180.086 48.3993 180.704 48.3515C181.455 48.393 182.203 48.2341 182.872 47.8911C183.541 47.5481 184.107 47.0333 184.512 46.3995H184.608V47.9995H187.488V40.3035C187.488 36.7995 184.832 34.7675 181.424 34.7675L181.36 34.7355ZM180.992 45.6955C180.016 45.6955 178.656 45.1995 178.656 43.9995C178.656 42.3995 180.352 41.8555 181.856 41.8555C182.806 41.832 183.746 42.0641 184.576 42.5275C184.475 43.3964 184.063 44.1994 183.416 44.7878C182.769 45.3762 181.93 45.7101 181.056 45.7275L180.992 45.6955ZM197.984 35.1995L194.56 43.8715H194.464L190.912 35.1995H187.712L193.04 47.3275L190 54.0635H193.12L201.312 35.1995H197.984ZM171.104 47.9995H174.08V27.9995H171.104V47.9995Z" fill="white"/>
<path d="M16.7042 12.0651C16.1769 12.6885 15.9079 13.4899 15.9522 14.3051V49.6971C15.8978 50.5137 16.168 51.3188 16.7042 51.9371L16.8162 52.0651L36.6402 32.2411V31.7611L16.8162 11.9531L16.7042 12.0651Z" fill="url(#paint0_linear_1506_890)"/>
<path d="M43.1996 38.8503L36.6396 32.2423V31.7623L43.1996 25.1543L43.3436 25.2503L51.1996 29.6983C53.4396 30.9623 53.4396 33.0423 51.1996 34.3223L43.3756 38.7703L43.1996 38.8503Z" fill="url(#paint1_linear_1506_890)"/>
<path d="M43.3921 38.752L36.6401 32L16.7041 51.936C17.1562 52.3384 17.7349 52.57 18.3399 52.5904C18.9448 52.6109 19.5378 52.419 20.0161 52.048L43.3921 38.752Z" fill="url(#paint2_linear_1506_890)"/>
<path d="M43.3921 25.2464L20.0161 11.9664C19.5409 11.5902 18.9484 11.3937 18.3426 11.4112C17.7369 11.4288 17.1567 11.6594 16.7041 12.0624L36.6401 31.9984L43.3921 25.2464Z" fill="url(#paint3_linear_1506_890)"/>
<path opacity="0.2" d="M43.2001 38.6094L20.0161 51.8094C19.5552 52.1572 18.9935 52.3454 18.4161 52.3454C17.8387 52.3454 17.277 52.1572 16.8161 51.8094L16.7041 51.9214L16.8161 52.0494C17.277 52.3972 17.8387 52.5854 18.4161 52.5854C18.9935 52.5854 19.5552 52.3972 20.0161 52.0494L43.3921 38.7534L43.2001 38.6094Z" fill="black"/>
<path opacity="0.12" d="M16.7034 51.7111C16.1895 51.0765 15.9376 50.2694 15.9994 49.4551V49.6951C15.945 50.5117 16.2152 51.3167 16.7514 51.9351L16.8634 51.8231L16.7034 51.7111Z" fill="black"/>
<path opacity="0.12" d="M51.2002 34.08L43.2002 38.608L43.3442 38.752L51.2002 34.304C51.6639 34.1079 52.0662 33.7904 52.3647 33.385C52.6631 32.9795 52.8468 32.501 52.8962 32C52.7962 32.4553 52.5906 32.8808 52.296 33.242C52.0014 33.6033 51.6261 33.8904 51.2002 34.08Z" fill="black"/>
<path opacity="0.25" d="M20.0162 12.1924L51.2002 29.9204C51.626 30.11 52.0014 30.397 52.2959 30.7583C52.5905 31.1196 52.7961 31.545 52.8962 32.0004C52.8467 31.4993 52.6631 31.0209 52.3646 30.6154C52.0662 30.2099 51.6639 29.8924 51.2002 29.6964L20.0162 11.9684C17.7922 10.6884 15.9521 11.7444 15.9521 14.3044V14.5444C16.0001 11.9844 17.7922 10.9284 20.0162 12.1924Z" fill="white"/>
<defs>
<linearGradient id="paint0_linear_1506_890" x1="34.8802" y1="13.9371" x2="8.03221" y2="40.7851" gradientUnits="userSpaceOnUse">
<stop stop-color="#00A0FF"/>
<stop offset="0.01" stop-color="#00A1FF"/>
<stop offset="0.26" stop-color="#00BEFF"/>
<stop offset="0.51" stop-color="#00D2FF"/>
<stop offset="0.76" stop-color="#00DFFF"/>
<stop offset="1" stop-color="#00E3FF"/>
</linearGradient>
<linearGradient id="paint1_linear_1506_890" x1="54.1276" y1="32.0023" x2="15.4236" y2="32.0023" gradientUnits="userSpaceOnUse">
<stop stop-color="#FFE000"/>
<stop offset="0.41" stop-color="#FFBD00"/>
<stop offset="0.78" stop-color="#FFA500"/>
<stop offset="1" stop-color="#FF9C00"/>
</linearGradient>
<linearGradient id="paint2_linear_1506_890" x1="39.7281" y1="35.68" x2="3.31209" y2="72.08" gradientUnits="userSpaceOnUse">
<stop stop-color="#FF3A44"/>
<stop offset="1" stop-color="#C31162"/>
</linearGradient>
<linearGradient id="paint3_linear_1506_890" x1="11.6801" y1="0.286389" x2="27.9361" y2="16.5424" gradientUnits="userSpaceOnUse">
<stop stop-color="#32A071"/>
<stop offset="0.07" stop-color="#2DA771"/>
<stop offset="0.48" stop-color="#15CF74"/>
<stop offset="0.8" stop-color="#06E775"/>
<stop offset="1" stop-color="#00F076"/>
</linearGradient>
</defs>
</svg>
